<svg xmlns="http://www.w3.org/2000/svg" xmlns:xlink="http://www.w3.org/1999/xlink" version="1.1" id="Layer_1" x="0px" y="0px" width="112px" height="105px" viewBox="0 0 112 105" enable-background="new 0 0 112 105" xml:space="preserve">
<g>
	<polyline fill="#FFFFFF" points="32.2,1.7 79.4,1.7 78.8,25.6 75.5,36.6 69,45.7 56,54.9 44.4,48.2 37.7,40.1 32.6,26.7 32.1,12.9"/>
	<polygon fill="none" stroke="#1D1D1B" stroke-width="0.322" points="32.2,1.7 79.4,1.7 78.8,25.6 75.5,36.6 69,45.7 56,54.9 44.4,48.2 37.7,40.1 32.6,26.7 32.1,12.9"/>
	<path fill="#1D1D1B" d="M55.872 78.342c0 0-2.38 0.492-3.2-2.297c-0.41 0.901-2.874 2.297-4.267-0.658 c-1.069 0.903-4.433 1.643-4.678-1.887c-0.822 0.41-5.17 1.478-4.925-2.79c-1.229 0.575-9.188 3.61-9.354-0.328 c-0.902 0.247-7.383 1.067-7.711-1.723c-0.904 0.246-9.52 0.819-8.699-2.954c-2.953 0.247-7.878 0.247-6.072-3.691 c-5.744 0.164-6.974-2.873-5.908-3.773c0.701-0.594 3.774-0.74 3.774-0.74s34.135 0 35.7 0c1.561 0 8.863-0.574 8.9 3 c0 3.365-3.447 3.775-2.543 5.334c0.484 0.8 2 0.8 3.5 0.164c1.442-0.605 3.098-1.559 5.498-1.559h-0.104 c2.399 0 4.1 1 5.5 1.559c1.517 0.6 3 0.7 3.527-0.164c0.903-1.559-2.544-1.969-2.544-5.334 c0-3.609 7.303-3.035 8.863-3.035c1.557 0 35.7 0 35.7 0s3.073 0.1 3.8 0.74c1.065 0.9-0.166 3.938-5.908 3.8 c1.806 3.938-3.117 3.938-6.072 3.691c0.821 3.773-7.796 3.2-8.699 2.954c-0.326 2.79-6.809 1.97-7.711 1.7 c-0.166 3.938-8.123 0.903-9.355 0.328c0.246 4.268-4.102 3.2-4.923 2.79c-0.245 3.529-3.612 2.79-4.677 1.9 c-1.395 2.955-3.856 1.56-4.268 0.658c-0.82 2.789-3.2 2.297-3.2 2.3"/>
	<path fill="none" stroke="#1D1D1B" stroke-width="0.4923" d="M55.872 78.342c0 0-2.38 0.492-3.2-2.297 c-0.41 0.901-2.874 2.297-4.267-0.658c-1.069 0.903-4.433 1.643-4.678-1.887c-0.822 0.41-5.17 1.478-4.925-2.79 c-1.229 0.575-9.188 3.61-9.354-0.328c-0.902 0.247-7.383 1.067-7.711-1.723c-0.904 0.246-9.52 0.819-8.699-2.954 c-2.953 0.247-7.878 0.247-6.072-3.691c-5.744 0.164-6.974-2.873-5.908-3.773c0.701-0.594 3.774-0.74 3.774-0.74s34.135 0 35.7 0 c1.561 0 8.863-0.574 8.9 3.035c0 3.365-3.447 3.775-2.543 5.334c0.484 0.8 2 0.8 3.5 0.2 c1.442-0.605 3.098-1.559 5.498-1.559h-0.104c2.399 0 4.1 1 5.5 1.559c1.517 0.6 3 0.7 3.527-0.164 c0.903-1.559-2.544-1.969-2.544-5.334c0-3.609 7.303-3.035 8.863-3.035c1.557 0 35.7 0 35.7 0s3.073 0.1 3.8 0.7 c1.065 0.9-0.166 3.938-5.908 3.773c1.806 3.938-3.117 3.938-6.072 3.691c0.821 3.773-7.796 3.2-8.699 3 c-0.326 2.79-6.809 1.97-7.711 1.723c-0.166 3.938-8.123 0.903-9.355 0.328c0.246 4.268-4.102 3.2-4.923 2.8 c-0.245 3.529-3.612 2.79-4.677 1.887c-1.395 2.955-3.856 1.56-4.268 0.658c-0.82 2.789-3.2 2.297-3.2 2.297H55.872z"/>
	<path fill="#FFD700" d="M59.619 73.957c0 0 0.4 0.1 0.992-0.294c0.573-0.409 0.982-0.818 1.23-0.573 c0.246 0.2 0.6 0.7 0.7 1.062c0.082 0.3 0.4 1.1 0.2 1.459s-0.396 0.594-0.643 0.8 c-0.247 0.246-0.916 0.33-1.408 0.246c-0.492-0.08-1.449-0.742-1.532-1.234C59.065 75 59.2 74.2 59.6 74"/>
	<path fill="#FFD700" d="M63.4 73.387c0.409-0.083 0.739-0.133 1.068-0.297c0.327-0.164 1-1.028 1.328-1.111 c0.328-0.082 0.8 0.4 1.1 0.701c0.245 0.3 0.6 0.9 0.7 1.424c0.08 0.492-0.488 1.064-0.816 1.3 c-0.326 0.247-0.839 0.296-1.605 0.272c-0.675-0.022-1.788-0.579-1.953-0.989C62.988 74.3 63 73.5 63.4 73.4"/>
	<path fill="#FFD700" d="M67.011 71.941c0 0 0 0.6 0.5 0.903c0.445 0.3 1.2 0.7 1.8 0.7 c0.643 0 2.299-0.024 2.695-0.641c0.395-0.618 0.469-1.632 0.32-2.126c-0.146-0.496-0.913-1.508-1.087-1.531 c-0.173-0.027-0.37-0.1-0.544 0.196s-0.248 0.421-0.568 0.593c-0.321 0.173-0.617 0.321-1.16 0.3 c-0.545 0.026-0.619-0.1-0.892 0.149C67.824 70.8 66.9 71.4 67 71.9"/>
	<path fill="#FFD700" d="M69.209 68.246c0.343 0 1.2 0.4 1.2 0.569c0.051 0.125-0.223 0.667-0.494 0.8 c-0.271 0.125-0.645 0.173-0.989 0.125c-0.346-0.051-0.938-0.347-0.841-0.644C68.219 68.8 68.6 68.2 69.2 68.2"/>
	<path fill="#FFD700" d="M64.858 69.137c0.767 0.1 1.7 0.1 1.9 0.247c0.225 0.1 0.8 0.5 0.7 0.9 c-0.124 0.419-0.569 0.84-0.791 0.939c-0.226 0.098-0.272 0.271-0.569 0.196s-0.891-0.321-1.285-0.543 c-0.396-0.224-0.717-0.62-0.643-0.966C64.239 69.6 64.6 69.1 64.9 69.1"/>
	<path fill="#FFD700" d="M61.299 71.534c0 0 0.023-0.47 0.396-0.544c0.369-0.073 1.357-0.272 1.729-0.247 c0.373 0 1 0.2 1.1 0.568c0.148 0.3 0.2 0.5 0.2 0.667s-0.371 0.445-0.668 0.6 c-0.295 0.148-0.594 0.396-0.84 0.347C63.006 72.9 61.6 72.6 61.3 71.5"/>
	<path fill="#FFD700" d="M59.473 70.199c0 0 0.7 0.2 1 0.74c0.32 0.5 0.6 1.3 0.5 1.6 c-0.101 0.296-0.47 0.444-0.741 0.568c-0.271 0.126-0.52 0.126-0.767 0.126s-0.964-0.274-1.062-0.521 c-0.101-0.248-0.347-0.916-0.37-1.113c-0.025-0.197 0-0.643 0.27-0.84C58.655 70.6 58.9 70.2 59.5 70.2"/>
	<g>
		<defs>
			<path id="SVGID_1_" d="M70.171 64.342c0.188 0 1.6 0.8 2.3 1.185c0.719 0.4 3.3 1.5 3.7 1.6 c0.349 0.1 1.2 0.3 1 0.642c-0.125 0.345-0.668 0.792-1.729 0.964c-1.063 0.173-1.312 0.222-1.757 0.2 c-0.443 0-3.287-0.319-3.66-1.136c-0.367-0.816-0.441-2.695-0.294-3.064C69.924 64.4 69.9 64.3 70.2 64.3"/>
		</defs>
		<clipPath id="SVGID_2_">
			<use xlink:href="#SVGID_1_" overflow="visible"/>
		</clipPath>
		
			<linearGradient id="SVGID_3_" gradientUnits="userSpaceOnUse" x1="-246.4" y1="510" x2="-245.3" y2="510" gradientTransform="matrix(6.2821 8.6866 8.6866 -6.2821 -2814.3359 5403.9297)">
			<stop offset="0" style="stop-color:#998300"/>
			<stop offset="1" style="stop-color:#FFD700"/>
		</linearGradient>
		<polygon clip-path="url(#SVGID_2_)" fill="url(#SVGID_3_)" points="74.7,60.7 79.6,67.4 72.3,72.6 67.4,65.9"/>
	</g>
	<path fill="#FFD700" d="M72.814 69.557c0.494-0.025 2.8 0 3.287-0.247c0.47-0.249 1.211-0.742 1.408-0.691 c0.199 0.1 1.7 0.9 2.1 1.012c0.371 0.1 1.7 0.5 1.9 0.817c0.221 0.3 0.3 0.6 0.2 0.8 c-0.715 0.891-3.311 0.816-3.854 0.691c-0.546-0.123-5.315-1.557-5.363-2.002C72.369 69.5 72.7 69.6 72.8 69.6"/>
	<g>
		<defs>
			<path id="SVGID_4_" d="M69.23 62.662c-0.049-0.262 0.667-0.963 0.964-0.963c0.298 0 0.766-0.076 1.1 0 c0.296 0.1 0.9 0.1 1.2 0.295c0.321 0.2 4.9 2.3 5.8 2.693c0.841 0.4 2 0.7 2.2 1 c0.297 0.2 0.6 0.4 0.4 0.569c-0.148 0.195-0.568 0.692-0.791 0.789c-0.223 0.101-0.74 0.173-1.311 0.2 c-0.567 0-0.42 0.174-1.704-0.321c-1.284-0.493-4.843-2.026-5.511-2.419c-0.669-0.398-1.78-0.843-2.077-1.088 C69.255 63.1 69.3 62.9 69.2 62.7"/>
		</defs>
		<clipPath id="SVGID_5_">
			<use xlink:href="#SVGID_4_" overflow="visible"/>
		</clipPath>
		
			<linearGradient id="SVGID_6_" gradientUnits="userSpaceOnUse" x1="-246.4" y1="510" x2="-245.3" y2="510" gradientTransform="matrix(6.2819 8.6863 8.6863 -6.2819 -2811.7109 5402.0293)">
			<stop offset="0" style="stop-color:#998300"/>
			<stop offset="1" style="stop-color:#FFD700"/>
		</linearGradient>
		<polygon clip-path="url(#SVGID_5_)" fill="url(#SVGID_6_)" points="77,56 83.8,65.4 73.3,73 66.5,63.6"/>
	</g>
	<g>
		<defs>
			<path id="SVGID_7_" d="M73.086 61.722c0.016-0.175 0.346-0.345 0.842-0.345c0.494 0 3.2 0 3.6 0 c1.212 0.1 1.6 0.2 2 0.42c0.395 0.2 0.2 0.1 0.8 0.345c0.545 0.2 1.5 0.6 2.2 0.8 c0.766 0.2 2.2 0.5 2.7 0.544c0.445 0.1 1.1 0.3 1.3 0.47c0.52 0.4 0.1 0.643-0.225 0.9 c-0.369 0.296-0.714 0.593-0.912 0.692c-0.198 0.099-0.842 0.247-1.236 0.197s-1.211-0.099-1.854-0.272 c-0.643-0.172-1.137-0.222-1.557-0.419C80.326 64.9 73 62.6 73.1 61.7"/>
		</defs>
		<clipPath id="SVGID_8_">
			<use xlink:href="#SVGID_7_" overflow="visible"/>
		</clipPath>
		
			<linearGradient id="SVGID_9_" gradientUnits="userSpaceOnUse" x1="-246.4" y1="510" x2="-245.3" y2="510" gradientTransform="matrix(6.2814 8.6856 8.6856 -6.2814 -2807.9062 5399.0254)">
			<stop offset="0" style="stop-color:#998300"/>
			<stop offset="1" style="stop-color:#FFD700"/>
		</linearGradient>
		<polygon clip-path="url(#SVGID_8_)" fill="url(#SVGID_9_)" points="82.2,54.7 89.2,64.3 77.8,72.5 70.9,62.9"/>
	</g>
	<path fill="#FFD700" d="M82.23 66.171c0 0 0.691-0.049 1.4 0.224c0.692 0.3 2.3 1.1 2.9 1.334s1.754 0.6 2.2 0.8 c0.421 0.1 0.7 0.1 0.8 0.422c0.049 0.271-0.348 0.765-0.646 0.938c-0.47 0.271-2.172 0.371-2.716 0.4 c-0.543 0-2.67 0-3.412-0.148c-0.74-0.15-2.373-0.543-2.99-0.891c-0.616-0.346-1.854-0.791-1.803-1.012 c0.049-0.225 0.567-0.445 1.111-0.396c0.545 0 1.359-0.025 1.631-0.246c0.273-0.225 0.668-1.064 0.841-1.211 C81.661 66.2 82 66.1 82.2 66.2"/>
	<path fill="#FFD700" d="M85.394 66.369c-0.091-0.23 0.245-0.544 0.567-0.692c0.321-0.148 0.668-0.271 0.913-0.519 c0.247-0.247 0.224-0.471 0.544-0.643c0.321-0.172 0.99-0.322 1.607-0.322s1.607-0.073 2.2 0.1 c0.618 0.2 1.8 0.5 2.3 0.765c0.57 0.2 1.5 0.5 2.1 0.594c0.641 0.1 2.3 0.2 2.4 0.5 c0.175 0.2 0.1 0.643-0.172 0.94c-0.246 0.297-1.483 0.963-2.448 1.088c-0.962 0.122-1.951 0.271-2.619 0.2 c-0.667-0.049-2.026-0.073-3.36-0.246C88.182 68 87.8 67.8 87.2 67.53C86.652 67.3 85.6 67 85.4 66.4"/>
	<g>
		<defs>
			<path id="SVGID_10_" d="M80.721 61.796c-0.076-0.173 0.691-0.222 1.038-0.321c0.347-0.098 2.521-0.32 3.089-0.37 c0.57-0.048 1.854-0.147 2.521-0.173c0.666-0.023 2.744-0.098 3.264-0.074c0.518 0 0.889-0.048 1.3 0.1 c0.372 0.2 0.6 0.3 0.6 0.521c-0.027 0.221-0.246 0.518-0.396 0.766c-0.146 0.246-0.42 0.79-0.643 0.9 s-1.605 0.444-2.321 0.469c-0.717 0.025-2.127-0.198-3.015-0.396c-0.892-0.197-1.609-0.32-2.352-0.469 c-0.739-0.147-0.938-0.197-1.456-0.345C81.759 62.3 80.9 62.2 80.7 61.8"/>
		</defs>
		<clipPath id="SVGID_11_">
			<use xlink:href="#SVGID_10_" overflow="visible"/>
		</clipPath>
		
			<linearGradient id="SVGID_12_" gradientUnits="userSpaceOnUse" x1="-246.4" y1="510" x2="-245.3" y2="510" gradientTransform="matrix(6.2812 8.6853 8.6853 -6.2812 -2802.9609 5395.2998)">
			<stop offset="0" style="stop-color:#998300"/>
			<stop offset="1" style="stop-color:#FFD700"/>
		</linearGradient>
		<polygon clip-path="url(#SVGID_11_)" fill="url(#SVGID_12_)" points="88.4,55.2 93.9,62.7 84.7,69.3 79.3,61.8"/>
	</g>
	<path fill="#FFD700" d="M93.227 61.353c0.217-0.046 2.5 0.6 4 0.792c1.682 0.2 2.9 0.2 3.6 0.2 c0.715 0 2.9 0.2 3.2 0.197c0.271 0 0.5 0.3 0.6 0.864c0.049 0.521-0.356 1.22-1.062 1.5 c-1.336 0.592-3.635 0.617-5.215 0.494c-1.584-0.124-3.954-0.668-4.845-0.916c-0.89-0.246-1.483-0.592-1.532-0.715 c-0.047-0.124-0.1-0.224 0.197-0.644c0.299-0.421 0.644-1.038 0.791-1.359C93.102 61.5 93 61.4 93.2 61.4"/>
	<path fill="#FFD700" d="M52.023 73.957c0 0-0.419 0.117-0.992-0.294c-0.576-0.409-0.986-0.818-1.233-0.573 c-0.245 0.246-0.585 0.734-0.667 1.062s-0.387 1.131-0.223 1.459s0.397 0.6 0.6 0.84c0.247 0.2 0.9 0.3 1.4 0.2 c0.494-0.08 1.451-0.742 1.534-1.234C52.574 75 52.4 74.2 52 74"/>
	<path fill="#FFD700" d="M48.242 73.387c-0.413-0.083-0.74-0.133-1.069-0.297c-0.328-0.164-1.001-1.028-1.329-1.111 c-0.328-0.082-0.804 0.372-1.051 0.701c-0.245 0.327-0.598 0.932-0.68 1.424c-0.08 0.5 0.5 1.1 0.8 1.3 c0.326 0.2 0.8 0.3 1.6 0.272c0.677-0.022 1.788-0.579 1.952-0.989C48.652 74.3 48.6 73.5 48.2 73.4"/>
	<path fill="#FFD700" d="M44.63 71.941c0 0-0.046 0.555-0.491 0.903c-0.444 0.345-1.186 0.689-1.828 0.7 c-0.643 0.024-2.299-0.024-2.695-0.641c-0.395-0.618-0.469-1.632-0.32-2.126c0.148-0.496 0.914-1.508 1.086-1.531 c0.174-0.027 0.369-0.1 0.5 0.196c0.174 0.3 0.2 0.4 0.6 0.593c0.321 0.2 0.6 0.3 1.2 0.3 c0.545 0 0.618-0.1 0.9 0.149C43.818 70.8 44.7 71.4 44.6 71.9"/>
	<path fill="#FFD700" d="M42.434 68.246c-0.345 0.046-1.188 0.445-1.235 0.569c-0.05 0.1 0.2 0.7 0.5 0.8 c0.271 0.1 0.6 0.2 1 0.125c0.348-0.051 0.94-0.347 0.841-0.644C43.424 68.8 43 68.2 42.4 68.2"/>
	<path fill="#FFD700" d="M46.782 69.137c-0.767 0.098-1.655 0.148-1.878 0.247s-0.84 0.519-0.716 0.9 c0.122 0.4 0.6 0.8 0.8 0.939c0.222 0.1 0.3 0.3 0.6 0.196s0.891-0.321 1.287-0.543 c0.393-0.224 0.715-0.62 0.641-0.966S47.09 69.1 46.8 69.1"/>
	<path fill="#FFD700" d="M50.344 71.534c0 0-0.027-0.47-0.397-0.544c-0.37-0.073-1.36-0.272-1.729-0.247 c-0.373 0.024-0.988 0.247-1.137 0.568c-0.15 0.321-0.199 0.47-0.199 0.667s0.371 0.4 0.7 0.6 c0.295 0.1 0.6 0.4 0.8 0.347C48.635 72.9 50 72.6 50.3 71.5"/>
	<path fill="#FFD700" d="M52.17 70.199c0 0-0.716 0.222-1.037 0.74c-0.321 0.521-0.644 1.311-0.544 1.6 c0.1 0.3 0.5 0.4 0.7 0.568c0.271 0.1 0.5 0.1 0.8 0.126s0.964-0.274 1.062-0.521 c0.1-0.248 0.347-0.916 0.371-1.113c0.025-0.197 0-0.643-0.271-0.84S52.714 70.2 52.2 70.2"/>
	<path fill="#FFD700" d="M55.828 74.154c0 0-1.112-0.197-1.407-0.321c-0.298-0.124-0.419-0.37-0.544-0.618 c-0.125-0.247-0.074-0.791-0.074-1.162s0.223-0.789 0.42-0.914c0.198-0.123 0.443-0.222 0.84-0.421 c0.395-0.197 0.766-0.172 0.766-0.172h-0.016c0 0 0.369-0.025 0.8 0.172c0.396 0.2 0.6 0.3 0.8 0.4 c0.199 0.1 0.4 0.5 0.4 0.914s0.05 0.915-0.073 1.162c-0.126 0.248-0.248 0.494-0.545 0.618s-1.408 0.321-1.408 0.3"/>
	<path fill="#FFD700" d="M55.854 74.622c0 0-0.989 0.197-1.333-0.048c-0.349-0.249-0.619-0.521-0.919-0.446 c-0.294 0.073-0.541 0.567-0.541 0.964s0 1.4 0.2 1.805c0.222 0.4 0.4 0.8 0.8 0.965c0.397 0.1 1.7 0.4 1.7 0.4 h-0.016c0 0 1.311-0.224 1.705-0.37c0.395-0.15 0.617-0.594 0.84-0.965c0.223-0.372 0.223-1.408 0.223-1.805 s-0.246-0.891-0.542-0.964c-0.299-0.075-0.569 0.197-0.915 0.446c-0.348 0.245-1.338 0.048-1.338 0"/>
	<g>
		<defs>
			<path id="SVGID_13_" d="M41.471 64.342c-0.188 0.016-1.605 0.767-2.322 1.185c-0.717 0.423-3.337 1.482-3.685 1.6 c-0.345 0.147-1.159 0.297-1.038 0.642c0.125 0.3 0.7 0.8 1.7 0.964c1.062 0.2 1.3 0.2 1.8 0.2 c0.443 0 3.287-0.319 3.658-1.136c0.369-0.816 0.443-2.695 0.297-3.064C41.717 64.4 41.7 64.3 41.5 64.3"/>
		</defs>
		<clipPath id="SVGID_14_">
			<use xlink:href="#SVGID_13_" overflow="visible"/>
		</clipPath>
		
			<linearGradient id="SVGID_15_" gradientUnits="userSpaceOnUse" x1="-272.3" y1="530.3" x2="-271.2" y2="530.3" gradientTransform="matrix(-6.5096 7.0508 7.0508 6.5096 -5469.4492 -1469.4062)">
			<stop offset="0" style="stop-color:#998300"/>
			<stop offset="1" style="stop-color:#FFD700"/>
		</linearGradient>
		<polygon clip-path="url(#SVGID_14_)" fill="url(#SVGID_15_)" points="44.3,66.5 38.5,72.8 32,66.8 37.9,60.5"/>
	</g>
	<path fill="#FFD700" d="M38.826 69.557c-0.494-0.025-2.816 0-3.287-0.247c-0.468-0.249-1.21-0.742-1.408-0.691 c-0.199 0.05-1.705 0.864-2.076 1.012c-0.371 0.148-1.656 0.47-1.879 0.817c-0.221 0.344-0.348 0.597-0.172 0.8 c0.715 0.9 3.3 0.8 3.9 0.691c0.544-0.123 5.314-1.557 5.362-2.002C39.272 69.5 38.9 69.6 38.8 69.6"/>
	<g>
		<defs>
			<path id="SVGID_16_" d="M42.408 62.662c0.051-0.262-0.666-0.963-0.963-0.963c-0.296 0-0.766-0.076-1.062 0 c-0.298 0.072-0.891 0.097-1.211 0.295c-0.323 0.197-4.943 2.299-5.783 2.693c-0.841 0.396-1.952 0.718-2.249 1 c-0.297 0.246-0.594 0.371-0.443 0.569c0.146 0.2 0.6 0.7 0.8 0.789c0.223 0.1 0.7 0.2 1.3 0.2 c0.567 0 0.4 0.2 1.705-0.321c1.283-0.493 4.844-2.026 5.51-2.419c0.668-0.398 1.782-0.843 2.077-1.088 C42.385 63.1 42.4 62.9 42.4 62.7"/>
		</defs>
		<clipPath id="SVGID_17_">
			<use xlink:href="#SVGID_16_" overflow="visible"/>
		</clipPath>
		
			<linearGradient id="SVGID_18_" gradientUnits="userSpaceOnUse" x1="-272.3" y1="530.4" x2="-271.2" y2="530.4" gradientTransform="matrix(-6.5097 7.0509 7.0509 6.5097 -5471.9023 -1471.9375)">
			<stop offset="0" style="stop-color:#998300"/>
			<stop offset="1" style="stop-color:#FFD700"/>
		</linearGradient>
		<polygon clip-path="url(#SVGID_17_)" fill="url(#SVGID_18_)" points="45.3,64.3 37,73.3 27.7,64.7 36,55.7"/>
	</g>
	<g>
		<defs>
			<path id="SVGID_19_" d="M38.555 61.722c-0.014-0.175-0.346-0.345-0.84-0.345s-3.239 0.006-3.559 0 c-1.213 0.073-1.631 0.222-2.028 0.42c-0.395 0.197-0.247 0.123-0.79 0.345c-0.543 0.223-1.458 0.619-2.224 0.8 c-0.767 0.198-2.226 0.494-2.669 0.544c-0.447 0.05-1.09 0.294-1.336 0.47c-0.52 0.371-0.147 0.6 0.2 0.9 c0.367 0.3 0.7 0.6 0.9 0.692c0.198 0.1 0.8 0.2 1.2 0.197s1.211-0.099 1.854-0.272 c0.642-0.172 1.137-0.222 1.557-0.419C31.314 64.9 38.6 62.6 38.6 61.7"/>
		</defs>
		<clipPath id="SVGID_20_">
			<use xlink:href="#SVGID_19_" overflow="visible"/>
		</clipPath>
		
			<linearGradient id="SVGID_21_" gradientUnits="userSpaceOnUse" x1="-272.3" y1="530.3" x2="-271.2" y2="530.3" gradientTransform="matrix(-6.5093 7.0505 7.0505 6.5093 -5474.5078 -1474.5391)">
			<stop offset="0" style="stop-color:#998300"/>
			<stop offset="1" style="stop-color:#FFD700"/>
		</linearGradient>
		<polygon clip-path="url(#SVGID_20_)" fill="url(#SVGID_21_)" points="40.9,63.4 32.2,72.9 22.3,63.8 31.1,54.4"/>
	</g>
	<path fill="#FFD700" d="M29.409 66.171c0 0-0.69-0.049-1.382 0.224c-0.693 0.271-2.326 1.062-2.918 1.3 c-0.594 0.271-1.753 0.643-2.176 0.79c-0.42 0.149-0.715 0.149-0.766 0.422c-0.049 0.3 0.3 0.8 0.6 0.9 c0.469 0.3 2.2 0.4 2.7 0.371c0.544 0 2.7 0 3.41-0.148c0.742-0.15 2.375-0.543 2.992-0.891 c0.617-0.346 1.852-0.791 1.803-1.012c-0.049-0.225-0.566-0.445-1.111-0.396s-1.359-0.025-1.631-0.246 c-0.273-0.225-0.668-1.064-0.842-1.211C29.978 66.2 29.7 66.1 29.4 66.2"/>
	<path fill="#FFD700" d="M26.25 66.369c0.088-0.23-0.248-0.544-0.569-0.692c-0.322-0.148-0.668-0.271-0.915-0.519 c-0.248-0.247-0.223-0.471-0.542-0.643c-0.322-0.172-0.991-0.322-1.608-0.322s-1.605-0.073-2.223 0.1 c-0.619 0.221-1.756 0.541-2.324 0.765c-0.568 0.223-1.458 0.494-2.102 0.594c-0.641 0.099-2.273 0.222-2.447 0.5 c-0.171 0.246-0.072 0.6 0.2 0.94c0.249 0.3 1.5 1 2.4 1.088c0.962 0.1 2 0.3 2.6 0.2 c0.669-0.049 2.026-0.073 3.36-0.246c1.336-0.174 1.73-0.396 2.299-0.644S26.004 67 26.2 66.4"/>
	<g>
		<defs>
			<path id="SVGID_22_" d="M30.92 61.796c0.075-0.173-0.691-0.222-1.039-0.321c-0.344-0.098-2.518-0.32-3.09-0.37 c-0.568-0.048-1.852-0.147-2.521-0.173c-0.666-0.023-2.741-0.098-3.261-0.074c-0.518 0.025-0.891-0.048-1.261 0.1 c-0.372 0.174-0.593 0.297-0.567 0.521c0.024 0.2 0.2 0.5 0.4 0.766c0.148 0.2 0.4 0.8 0.6 0.9 c0.224 0.1 1.6 0.4 2.3 0.469c0.718 0 2.127-0.198 3.017-0.396c0.89-0.197 1.605-0.32 2.349-0.469 c0.74-0.147 0.938-0.197 1.458-0.345C29.881 62.3 30.7 62.2 30.9 61.8"/>
		</defs>
		<clipPath id="SVGID_23_">
			<use xlink:href="#SVGID_22_" overflow="visible"/>
		</clipPath>
		
			<linearGradient id="SVGID_24_" gradientUnits="userSpaceOnUse" x1="-272.3" y1="530.3" x2="-271.2" y2="530.3" gradientTransform="matrix(-6.5097 7.0509 7.0509 6.5097 -5478.7803 -1477.8203)">
			<stop offset="0" style="stop-color:#998300"/>
			<stop offset="1" style="stop-color:#FFD700"/>
		</linearGradient>
		<polygon clip-path="url(#SVGID_23_)" fill="url(#SVGID_24_)" points="32.4,62.1 25.5,69.6 17.7,62.4 24.6,54.9"/>
	</g>
	<path fill="#FFD700" d="M18.415 61.353c-0.218-0.046-2.521 0.618-4.028 0.792c-1.682 0.191-2.893 0.195-3.607 0.2 c-0.717 0.023-2.893 0.172-3.164 0.197c-0.272 0.025-0.545 0.347-0.594 0.864c-0.049 0.5 0.4 1.2 1.1 1.5 c1.334 0.6 3.6 0.6 5.2 0.494c1.584-0.124 3.953-0.668 4.845-0.916c0.89-0.246 1.481-0.592 1.532-0.715 c0.049-0.124 0.1-0.224-0.196-0.644c-0.298-0.421-0.644-1.038-0.792-1.359C18.539 61.5 18.7 61.4 18.4 61.4"/>
	<g>
		<defs>
			<path id="SVGID_25_" d="M55.836 64.614c0 0-1.268 0.06-2.289 0.345c-1.062 0.295-2.169 0.96-2.91 1.207s-2.045 0.487-2.689 0.5 c-1.15 0.11-1.932-1.328-1.15-2.195c1.111-1.233 4.914-5.86-1.785-6.455c-1.185-0.104-12.01-0.124-14.631-0.148 c-2.621-0.023-13.74-0.023-15.074 0c-1.335 0.024-11.15 0.051-11.15 0.051s-2.871 0.173-2.991 1 c-0.169 1.1 1.1 2 2 2.298c0.863 0.3 3.3 0.5 5 0.472c1.705 0 7.9 0 9.811-1.113 c0.135-0.082-4.298-0.816-5.013-0.939c-0.33-0.058 4.104-0.026 6.1 0.42c0.56 0.1 10.5 0.4 13 0.4 s7.215-0.124 8.303-0.1c1.086 0 4.461-0.079 4.5 1.014c0.025 0.7 0.1 1.706-0.518 2.2 c-0.668 0.496-1.287 0.569-1.258 2.894c0.016 1.6 0.7 2.2 1.7 2.299c1.73 0.1 2.101-0.693 2.57-0.545 c0.47 0.1 0.2 1.2 0.7 1.607c0.74 0.6 1.8 0.6 2.3 0.494c0.568-0.076 0.963-0.668 1.335-0.891 c0.371-0.221 0.718-0.123 1.1 0.248s0.59 0.6 1.2 0.692c0.639 0 0.689-0.126 0.986-0.421 c0.295-0.297 0.891-0.347 0.891-0.347h-0.025c0 0 0.6 0.1 0.9 0.347c0.297 0.3 0.3 0.5 1 0.4 c0.57-0.044 0.812-0.321 1.161-0.692c0.345-0.371 0.691-0.469 1.062-0.248c0.371 0.2 0.8 0.8 1.3 0.9 c0.569 0.1 1.6 0.1 2.349-0.494c0.511-0.409 0.247-1.46 0.717-1.607c0.469-0.148 0.8 0.6 2.6 0.5 c0.986-0.057 1.663-0.666 1.68-2.299c0.027-2.324-0.592-2.397-1.26-2.894c-0.668-0.493-0.543-1.481-0.519-2.199 c0.036-1.093 3.409-0.987 4.499-1.014c1.086-0.024 5.8 0.1 8.3 0.1c2.495 0 12.412-0.321 12.973-0.444 c2.022-0.446 6.456-0.478 6.128-0.42c-0.718 0.123-5.149 0.857-5.015 0.939c1.901 1.2 8.1 1.1 9.8 1.1 s4.124-0.15 4.988-0.472c0.865-0.319 2.176-1.185 2.008-2.298c-0.121-0.791-2.992-0.964-2.992-0.964s-9.814-0.026-11.15-0.051 c-1.334-0.023-12.455-0.023-15.074 0c-2.621 0.024-13.445 0.044-14.63 0.148c-6.698 0.595-2.897 5.222-1.786 6.5 c0.781 0.9 0 2.306-1.15 2.195c-0.645-0.061-1.948-0.301-2.689-0.548c-0.743-0.247-1.85-0.912-2.909-1.207 c-1.022-0.285-2.292-0.345-2.292-0.345"/>
		</defs>
		<clipPath id="SVGID_26_">
			<use xlink:href="#SVGID_25_" overflow="visible"/>
		</clipPath>
		
			<radialGradient id="SVGID_27_" cx="-264.3" cy="498.6" r="1.1" gradientTransform="matrix(36.7747 0 0 -36.7747 9776.9062 18399.6562)" gradientUnits="userSpaceOnUse">
			<stop offset="0" style="stop-color:#FFD700"/>
			<stop offset="0.2253" style="stop-color:#FFD700"/>
			<stop offset="0.3516" style="stop-color:#C3A600"/>
			<stop offset="1" style="stop-color:#FFD700"/>
		</radialGradient>
		<rect x="1" y="57.9" clip-path="url(#SVGID_26_)" fill="url(#SVGID_27_)" width="109.6" height="12.6"/>
	</g>
	<path fill="#211554" d="M63.203 13.445c-14.489 6.277-17.791-3.981-26.16 0.446c-0.879 0.384-2.255 0.843-4.67 1.2 c-0.161 2.094-0.027 5.6 0.1 8.242c4.67 0.2 6.796-3.867 13.201-1.367c13.201 5.2 17.018-2.335 23.907-0.161 c5.706 1.8 5.7 2.1 9.7 1.528c0.08-2.776 0.162-6.99 0.241-9.771C71.539 17.8 70.9 10.1 63.2 13.4"/>
	<path fill="#211554" d="M78.168 28.556c-6.729 2.804-7.742-3.833-14.965-0.702c-14.489 6.279-17.791-3.982-26.16 0.4 c-0.709 0.308-1.742 0.54-3.381 0.927c-0.393 0.1 1.9 8.5 3.2 7.985c2.359-0.937 4.702-2.009 8.765-0.424 c13.201 5.2 17.018-2.333 23.907-0.16c2.401 0.8 3.8 1.2 4.9 1.52C75.973 38.5 78.6 28.4 78.2 28.6"/>
	<path fill="#211554" d="M79.484 7.267c-5.336 0.384-6.301-2.756-9.36-2.918c-2.011-0.105-3.058 2.013-6.358 2 s-3.426-1.832-7.54-1.832s-5.178 2.396-8.962 2.396c-3.781 0-4.441-2.396-7.494-2.396c-3.051 0-4.09 2.461-7.396 2.8 c-0.256 0.028-0.162-5.653-0.162-5.653h47.171C79.383 1.7 79.9 7.2 79.5 7.3"/>
	<path fill="#211554" d="M70.131 44.759c-6.889-2.173-8.914 5.364-22.115 0.214c-2.211-0.864-5.703-0.988-7.175-0.728 c1.182 1.9 7.2 7.7 13.5 10.171c0.553 0.2 1.1 0.4 1.6 0.483c1.354 0.1 7.461-3.562 10.625-6.278 c1.871-1.607 3.58-2.947 3.932-3.74C70.391 44.8 70.3 44.8 70.1 44.8"/>
	<polyline fill="#FFD700" points="42.7,14.1 43.4,14.1 43.4,30.8 42.6,30.8"/>
	<polygon fill="none" stroke="#1D1D1B" stroke-width="0.19" stroke-linecap="round" stroke-linejoin="round" points="42.7,14.1 43.4,14.1 43.4,30.8 42.6,30.8"/>
	<path fill="#FFD700" d="M43.011 31.166c3.602 0 3.351-2.197 3.377-2.285h-0.569c0 1.727-2.729 1.744-2.729 1.7 s-2.811-0.018-2.811-1.744h-0.521C39.856 29.3 39.6 31.2 43 31.2 M47.242 28.881c0 1.975-1.712 3.062-4.218 3.1 c-2.505 0-4.198-1.088-4.198-3.062h-2.125c0 2.4 2.6 6 6.4 5.979c3.794 0 6.389-3.583 6.389-5.979H47.242z M38.885 28.842H38.59c0 0 0 0 0 0.039h0.303C38.887 28.9 38.9 28.8 38.9 28.842z M47.359 28.8 l-0.307 0.035l-0.002 0.004h0.307C47.357 28.9 47.4 28.9 47.4 28.842z"/>
	<path fill="none" stroke="#1D1D1B" stroke-width="0.1899" d="M43.011 31.166c3.602 0 3.351-2.197 3.377-2.285h-0.569 c0 1.727-2.729 1.744-2.729 1.744s-2.811-0.018-2.811-1.744h-0.521C39.856 29.3 39.6 31.2 43 31.166z M47.242 28.9 c0 1.975-1.712 3.062-4.218 3.062c-2.505 0-4.198-1.088-4.198-3.062h-2.125c0 2.4 2.6 6 6.4 6 c3.794 0 6.389-3.583 6.389-5.979H47.242z M38.885 28.842H38.59c0 0 0 0 0 0.039h0.303 C38.887 28.9 38.9 28.8 38.9 28.842z M47.359 28.842l-0.307 0.035l-0.002 0.004h0.307 C47.357 28.9 47.4 28.9 47.4 28.842z"/>
	<path fill="#FFD700" d="M40.827 16.77v-1.532c0 0-0.009-0.649-1.062 0.268c-1.001 0.864-2.464 1.064-2.464 1.1 s1.131 0.6 1.9 0.531C40.029 17 40.8 16.8 40.8 16.8"/>
	<path fill="none" stroke="#1D1D1B" stroke-width="0.1786" stroke-linecap="round" stroke-linejoin="round" d="M40.827 16.77v-1.532 c0 0-0.009-0.649-1.062 0.268c-1.001 0.864-2.464 1.064-2.464 1.064s1.131 0.6 1.9 0.5 C40.029 17 40.8 16.8 40.8 16.77z"/>
	<path fill="#D9B800" d="M40.827 16.77l-1.398-0.333c0 0 0.266-0.733 0.601-0.8c0.332-0.066 0.7 0 0.7 0"/>
	<path fill="none" stroke="#1D1D1B" stroke-width="0.2144" stroke-linecap="round" stroke-linejoin="round" d="M40.827 16.8 l-1.398-0.333c0 0 0.266-0.733 0.601-0.8c0.332-0.066 0.7 0 0.7 0L40.827 16.77z"/>
	<rect x="36.6" y="26.7" fill="#FFD700" width="0.7" height="1.5"/>
	
		<rect x="36.6" y="26.7" fill="none" stroke="#1D1D1B" stroke-width="0.19" stroke-linecap="round" stroke-linejoin="round" width="0.7" height="1.5"/>
	<rect x="39.1" y="26.7" fill="#FFD700" width="0.7" height="1.5"/>
	
		<rect x="39.1" y="26.7" fill="none" stroke="#1D1D1B" stroke-width="0.19" stroke-linecap="round" stroke-linejoin="round" width="0.7" height="1.5"/>
	<path fill="#FFD700" d="M38.092 18.743l10.242-2.158c0 0 0.5 0.3 0.4 0.418c-0.16 0.161-10.145 2.062-10.145 2.1 S37.61 18.9 38.1 18.7"/>
	<path fill="none" stroke="#1D1D1B" stroke-width="0.2144" stroke-linecap="round" stroke-linejoin="round" d="M38.092 18.7 l10.242-2.158c0 0 0.5 0.3 0.4 0.418c-0.16 0.161-10.145 2.062-10.145 2.062S37.61 18.9 38.1 18.743z"/>
	<rect x="35.9" y="26.4" fill="#FFD700" width="4.9" height="0.7"/>
	
		<rect x="35.9" y="26.4" fill="none" stroke="#1D1D1B" stroke-width="0.19" stroke-linecap="round" stroke-linejoin="round" width="4.9" height="0.7"/>
	<rect x="46.1" y="26.7" fill="#FFD700" width="0.7" height="1.5"/>
	
		<rect x="46.1" y="26.7" fill="none" stroke="#1D1D1B" stroke-width="0.19" stroke-linecap="round" stroke-linejoin="round" width="0.7" height="1.5"/>
	<rect x="48.6" y="26.7" fill="#FFD700" width="0.7" height="1.5"/>
	
		<rect x="48.6" y="26.7" fill="none" stroke="#1D1D1B" stroke-width="0.19" stroke-linecap="round" stroke-linejoin="round" width="0.7" height="1.5"/>
	<rect x="45.4" y="26.4" fill="#FFD700" width="4.9" height="0.7"/>
	
		<rect x="45.4" y="26.4" fill="none" stroke="#1D1D1B" stroke-width="0.19" stroke-linecap="round" stroke-linejoin="round" width="4.9" height="0.7"/>
	<path fill="#FFD700" d="M39.316 26.697c0 0-1.191-1.547-1.191-3.607s0.58-3.928 0.9-4.059c0.322-0.127 9.178-1.834 9.178-1.834 s-2.709 3.353-2.549 5.865c0.164 2.5 0.8 3.9 1 4.149c0.191 0.289-1.258-0.773-3.447-1.03 C40.991 25.9 39.6 26.2 39.3 26.7"/>
	<path fill="none" stroke="#1D1D1B" stroke-width="0.19" stroke-linecap="round" stroke-linejoin="round" d="M39.316 26.7 c0 0-1.191-1.547-1.191-3.607s0.58-3.928 0.9-4.059c0.322-0.127 9.178-1.834 9.178-1.834s-2.709 3.353-2.549 5.9 c0.164 2.5 0.8 3.9 1 4.149c0.191 0.289-1.258-0.773-3.447-1.03C40.991 25.9 39.6 26.2 39.3 26.697z"/>
	<path fill="#FFD700" d="M42.957 16.297v-2.123c0 0-0.242-1.261-2.529 0.266c-0.754 0.505-0.999 0.399-0.999 0.399v1.598 c0 0 0.866-0.277 1.665-0.37C41.894 16 43 16.3 43 16.3"/>
	<path fill="none" stroke="#1D1D1B" stroke-width="0.1786" stroke-linecap="round" stroke-linejoin="round" d="M42.957 16.3 v-2.123c0 0-0.242-1.261-2.529 0.266c-0.754 0.505-0.999 0.399-0.999 0.399v1.598c0 0 0.866-0.277 1.665-0.37 C41.894 16 43 16.3 43 16.297z"/>
	<path fill="none" stroke="#1D1D1B" stroke-width="0.322" stroke-linecap="round" stroke-linejoin="round" d="M37.607 28.9 c0 2.4 2.5 4.7 5.4 4.665c2.528 0 5.501-1.873 5.501-4.576"/>
	<rect x="35.9" y="28.2" fill="#FFD700" width="4.9" height="0.7"/>
	
		<rect x="35.9" y="28.2" fill="none" stroke="#1D1D1B" stroke-width="0.19" stroke-linecap="round" stroke-linejoin="round" width="4.9" height="0.7"/>
	<rect x="45.4" y="28.2" fill="#FFD700" width="4.9" height="0.7"/>
	
		<rect x="45.4" y="28.2" fill="none" stroke="#1D1D1B" stroke-width="0.19" stroke-linecap="round" stroke-linejoin="round" width="4.9" height="0.7"/>
	<rect x="68.2" y="14.1" fill="#FFD700" width="0.8" height="16.8"/>
	
		<rect x="68.2" y="14.1" fill="none" stroke="#1D1D1B" stroke-width="0.19" stroke-linecap="round" stroke-linejoin="round" width="0.8" height="16.8"/>
	<path fill="#FFD700" d="M68.607 31.166c3.603 0 3.352-2.197 3.379-2.285h-0.572c0 1.727-2.727 1.744-2.727 1.7 s-2.813-0.018-2.813-1.744h-0.517C65.455 29.3 65.2 31.2 68.6 31.2 M72.84 28.881c0 1.975-1.712 3.062-4.219 3.1 c-2.503 0-4.197-1.088-4.197-3.062h-2.127c0 2.4 2.6 6 6.4 5.979c3.793 0 6.387-3.583 6.387-5.979H72.84z M64.482 28.8 h-0.295c0 0 0 0 0 0.039h0.301C64.486 28.9 64.5 28.8 64.5 28.842z M72.959 28.842l-0.311 0.035v0.004 h0.305C72.953 28.9 73 28.9 73 28.842z"/>
	<path fill="none" stroke="#1D1D1B" stroke-width="0.1899" d="M68.607 31.166c3.603 0 3.352-2.197 3.379-2.285h-0.572 c0 1.727-2.727 1.744-2.727 1.744s-2.813-0.018-2.813-1.744h-0.517C65.455 29.3 65.2 31.2 68.6 31.166z M72.84 28.9 c0 1.975-1.712 3.062-4.219 3.062c-2.503 0-4.197-1.088-4.197-3.062h-2.127c0 2.4 2.6 6 6.4 6 c3.793 0 6.387-3.583 6.387-5.979H72.84z M64.482 28.842h-0.295c0 0 0 0 0 0.039h0.301 C64.486 28.9 64.5 28.8 64.5 28.842z M72.959 28.842l-0.311 0.035v0.004h0.305C72.953 28.9 73 28.9 73 28.842z "/>
	<path fill="#FFD700" d="M66.426 16.77v-1.532c0 0-0.008-0.649-1.064 0.268c-1 0.864-2.463 1.064-2.463 1.1 s1.133 0.6 1.9 0.531C65.627 17 66.4 16.8 66.4 16.8"/>
	<path fill="none" stroke="#1D1D1B" stroke-width="0.1786" stroke-linecap="round" stroke-linejoin="round" d="M66.426 16.77v-1.532 c0 0-0.008-0.649-1.064 0.268c-1 0.864-2.463 1.064-2.463 1.064s1.133 0.6 1.9 0.531C65.627 17 66.4 16.8 66.4 16.77z "/>
	<path fill="#D9B800" d="M66.426 16.77l-1.398-0.333c0 0 0.266-0.733 0.6-0.8c0.33-0.066 0.7 0 0.7 0"/>
	<path fill="none" stroke="#1D1D1B" stroke-width="0.2144" stroke-linecap="round" stroke-linejoin="round" d="M66.426 16.8 l-1.398-0.333c0 0 0.266-0.733 0.6-0.8c0.33-0.066 0.7 0 0.7 0L66.426 16.77z"/>
	<rect x="62.2" y="26.7" fill="#FFD700" width="0.7" height="1.5"/>
	
		<rect x="62.2" y="26.7" fill="none" stroke="#1D1D1B" stroke-width="0.19" stroke-linecap="round" stroke-linejoin="round" width="0.7" height="1.5"/>
	<rect x="64.7" y="26.7" fill="#FFD700" width="0.7" height="1.5"/>
	
		<rect x="64.7" y="26.7" fill="none" stroke="#1D1D1B" stroke-width="0.19" stroke-linecap="round" stroke-linejoin="round" width="0.7" height="1.5"/>
	<path fill="#FFD700" d="M63.69 18.743l10.241-2.158c0 0 0.5 0.3 0.4 0.418c-0.158 0.161-10.144 2.062-10.144 2.1 S63.207 18.9 63.7 18.7"/>
	<path fill="none" stroke="#1D1D1B" stroke-width="0.2144" stroke-linecap="round" stroke-linejoin="round" d="M63.69 18.7 l10.241-2.158c0 0 0.5 0.3 0.4 0.418c-0.158 0.161-10.144 2.062-10.144 2.062S63.207 18.9 63.7 18.743z"/>
	<rect x="61.5" y="26.4" fill="#FFD700" width="4.9" height="0.7"/>
	
		<rect x="61.5" y="26.4" fill="none" stroke="#1D1D1B" stroke-width="0.19" stroke-linecap="round" stroke-linejoin="round" width="4.9" height="0.7"/>
	<rect x="71.7" y="26.7" fill="#FFD700" width="0.7" height="1.5"/>
	
		<rect x="71.7" y="26.7" fill="none" stroke="#1D1D1B" stroke-width="0.19" stroke-linecap="round" stroke-linejoin="round" width="0.7" height="1.5"/>
	<rect x="74.2" y="26.7" fill="#FFD700" width="0.7" height="1.5"/>
	
		<rect x="74.2" y="26.7" fill="none" stroke="#1D1D1B" stroke-width="0.19" stroke-linecap="round" stroke-linejoin="round" width="0.7" height="1.5"/>
	<rect x="71" y="26.4" fill="#FFD700" width="4.9" height="0.7"/>
	
		<rect x="71" y="26.4" fill="none" stroke="#1D1D1B" stroke-width="0.19" stroke-linecap="round" stroke-linejoin="round" width="4.9" height="0.7"/>
	<path fill="#FFD700" d="M64.914 26.697c0 0-1.191-1.547-1.191-3.607s0.578-3.928 0.9-4.059c0.322-0.127 9.178-1.834 9.178-1.834 s-2.71 3.353-2.549 5.865c0.162 2.5 0.8 3.9 1 4.149c0.195 0.289-1.256-0.773-3.444-1.03 C66.59 25.9 65.2 26.2 64.9 26.7"/>
	<path fill="none" stroke="#1D1D1B" stroke-width="0.19" stroke-linecap="round" stroke-linejoin="round" d="M64.914 26.7 c0 0-1.191-1.547-1.191-3.607s0.578-3.928 0.9-4.059c0.322-0.127 9.178-1.834 9.178-1.834s-2.71 3.353-2.549 5.9 c0.162 2.5 0.8 3.9 1 4.149c0.195 0.289-1.256-0.773-3.444-1.03C66.59 25.9 65.2 26.2 64.9 26.697z"/>
	<path fill="#FFD700" d="M68.555 16.297v-2.123c0 0-0.24-1.261-2.529 0.266c-0.756 0.505-0.998 0.399-0.998 0.399v1.598 c0 0 0.865-0.277 1.664-0.37C67.488 16 68.6 16.3 68.6 16.3"/>
	<path fill="none" stroke="#1D1D1B" stroke-width="0.1786" stroke-linecap="round" stroke-linejoin="round" d="M68.555 16.3 v-2.123c0 0-0.24-1.261-2.529 0.266c-0.756 0.505-0.998 0.399-0.998 0.399v1.598c0 0 0.865-0.277 1.664-0.37 C67.488 16 68.6 16.3 68.6 16.297z"/>
	<path fill="none" stroke="#1D1D1B" stroke-width="0.322" stroke-linecap="round" stroke-linejoin="round" d="M63.205 28.9 c0 2.4 2.5 4.7 5.4 4.665c2.529 0 5.501-1.873 5.501-4.576"/>
	<rect x="61.5" y="28.2" fill="#FFD700" width="4.9" height="0.7"/>
	
		<rect x="61.5" y="28.2" fill="none" stroke="#1D1D1B" stroke-width="0.19" stroke-linecap="round" stroke-linejoin="round" width="4.9" height="0.7"/>
	<rect x="71" y="28.2" fill="#FFD700" width="4.9" height="0.7"/>
	
		<rect x="71" y="28.2" fill="none" stroke="#1D1D1B" stroke-width="0.19" stroke-linecap="round" stroke-linejoin="round" width="4.9" height="0.7"/>
	<path fill="#FFD700" d="M62.575 48.42v-5.219c0 0-2.677-13.576-2.688-28.295l0.671-0.467c0 0 0.487-0.234 0.487-0.68 c0-0.508-1.123-1.131-1.123-1.131c-0.141-0.079-0.317-0.152-0.507-0.217v-1.689c0.397-0.271 0.933-0.642 1.143-0.805 c0.35-0.271 0.487-0.929 0.487-1.375c0-0.508-1.123-1.131-1.123-1.131c-0.199-0.11-0.467-0.211-0.745-0.289 C58.609 6.4 57.6 5.5 55.9 5.5c-1.646 0-2.698 0.917-3.266 1.623c-0.279 0.078-0.545 0.179-0.744 0.3 c0 0-1.122 0.623-1.122 1.131c0 0.4 0.1 1.1 0.5 1.375c0.208 0.2 0.7 0.5 1.1 0.805v1.689 c-0.189 0.064-0.367 0.138-0.508 0.217c0 0-1.122 0.623-1.122 1.131c0 0.4 0.5 0.7 0.5 0.68l0.67 0.5 c-0.011 14.719-2.688 28.295-2.688 28.295v5.219"/>
	<path fill="#FFD700" d="M59.887 14.906l0.671-0.467c0 0 0.487-0.234 0.487-0.68c0-0.508-1.123-1.131-1.123-1.131 c-0.141-0.079-0.317-0.152-0.507-0.217v-1.689c0.397-0.271 0.933-0.642 1.143-0.805c0.35-0.271 0.487-0.929 0.487-1.375 c0-0.508-1.123-1.131-1.123-1.131c-0.199-0.11-0.467-0.211-0.745-0.289C58.609 6.4 57.6 5.5 55.9 5.5 c-1.646 0-2.698 0.917-3.266 1.623c-0.279 0.078-0.545 0.179-0.744 0.289c0 0-1.122 0.623-1.122 1.1 c0 0.4 0.1 1.1 0.5 1.375c0.208 0.2 0.7 0.5 1.1 0.805v1.689c-0.189 0.064-0.367 0.138-0.508 0.2 c0 0-1.122 0.623-1.122 1.131c0 0.4 0.5 0.7 0.5 0.68l0.67 0.467C54.818 14.4 56.9 14.3 59.9 14.9"/>
	<path fill="#1D1D1B" d="M59.415 12.413v-1.446c0.397-0.231 0.933-0.548 1.143-0.688c0.35-0.231 0.487-0.794 0.487-1.176 c0-0.435-1.123-0.968-1.123-0.968c-0.199-0.096-5.27-0.881-8.02 0c0 0-1.122 0.533-1.122 0.968c0 0.4 0.1 0.9 0.5 1.2 c0.208 0.1 0.7 0.5 1.1 0.688c0 0 0 0.7 0 1.446C55.43 11.8 59.6 12.5 59.4 12.4"/>
	<path fill="none" stroke="#1D1D1B" stroke-width="0.2575" d="M62.575 48.42v-5.219c0 0-2.677-13.576-2.688-28.295l0.671-0.467 c0 0 0.487-0.234 0.487-0.68c0-0.508-1.123-1.131-1.123-1.131c-0.141-0.079-0.317-0.152-0.507-0.217v-1.689 c0.397-0.271 0.933-0.642 1.143-0.805c0.35-0.271 0.487-0.929 0.487-1.375c0-0.508-1.123-1.131-1.123-1.131 c-0.199-0.11-0.467-0.211-0.745-0.289C58.609 6.4 57.6 5.5 55.9 5.5c-1.646 0-2.698 0.917-3.266 1.6 c-0.279 0.078-0.545 0.179-0.744 0.289c0 0-1.122 0.623-1.122 1.131c0 0.4 0.1 1.1 0.5 1.4 c0.208 0.2 0.7 0.5 1.1 0.805v1.689c-0.189 0.064-0.367 0.138-0.508 0.217c0 0-1.122 0.623-1.122 1.1 c0 0.4 0.5 0.7 0.5 0.68l0.67 0.467c-0.011 14.719-2.688 28.295-2.688 28.295v5.219H62.575z"/>
	
		<line fill="none" stroke="#FFD700" stroke-width="0.483" stroke-dasharray="2.2538,0.322" x1="43" y1="10.6" x2="68.8" y2="10.6"/>
	
		<line fill="none" stroke="#FFD700" stroke-width="0.322" stroke-dasharray="2.2538,0.644" x1="44.7" y1="12" x2="67.1" y2="9.1"/>
	
		<line fill="none" stroke="#FFD700" stroke-width="0.2539" stroke-dasharray="1.6099,0.483" x1="44.7" y1="9.1" x2="67.1" y2="12"/>
	<path fill="#FFD700" d="M54.062 12.127L52.4 12.402V9.125c0.338-0.111 0.869-0.236 1.662-0.329"/>
	<path fill="none" stroke="#1D1D1B" stroke-width="0.1943" d="M54.062 12.127L52.4 12.402V9.125 c0.338-0.111 0.869-0.236 1.662-0.329V12.127z"/>
	<path fill="#FFD700" d="M57.769 8.796c0.784 0.1 1.3 0.2 1.6 0.329v3.277l-1.642-0.275"/>
	<path fill="none" stroke="#1D1D1B" stroke-width="0.193" d="M57.769 8.796c0.784 0.1 1.3 0.2 1.6 0.329v3.277l-1.642-0.275 V8.796z"/>
	<path fill="#FFD700" d="M55.875 12.082c-0.642 0-1.274 0.045-1.274 0.045v-3.4c0.374-0.04 0.812-0.063 1.321-0.063h-0.021 c0.512 0 0.9 0 1.3 0.063v3.4C57.223 12.1 56.5 12.1 55.9 12.1"/>
	<path fill="none" stroke="#1D1D1B" stroke-width="0.1636" d="M55.875 12.082c-0.642 0-1.274 0.045-1.274 0.045v-3.4 c0.374-0.04 0.812-0.063 1.321-0.063h-0.021c0.512 0 0.9 0 1.3 0.063v3.4C57.223 12.1 56.5 12.1 55.9 12.082z"/>
	<path fill="none" stroke="#1D1D1B" stroke-width="0.161" d="M59.473 14.837c-2.264-0.453-3.908-0.521-5.975-0.198"/>
	<path fill="none" stroke="#1D1D1B" stroke-width="0.161" d="M51.924 14.937c0.131-0.028 0.254-0.055 0.381-0.08"/>
	<path fill="none" stroke="#1D1D1B" stroke-width="0.161" d="M52.305 14.856c0.416-0.085 0.812-0.159 1.193-0.218"/>
	<path fill="none" stroke="#1D1D1B" stroke-width="0.161" d="M59.473 14.837c0.145 0 0.3 0.1 0.4 0.1"/>
	<path fill="none" stroke="#1D1D1B" stroke-width="0.161" d="M51.924 12.572c3.04-0.663 4.931-0.663 7.991-0.006"/>
	<path fill="none" stroke="#1D1D1B" stroke-width="0.161" d="M51.613 9.171c3.275-0.664 5.312-0.664 8.611-0.008"/>
	<path fill="none" stroke="#1D1D1B" stroke-width="0.161" d="M51.924 7.408c3.04-0.663 4.931-0.663 7.991-0.008"/>
	<path fill="none" stroke="#1D1D1B" stroke-width="0.161" d="M59.902 16.185c-0.154-0.033-0.301-0.057-0.453-0.089"/>
	<path fill="none" stroke="#1D1D1B" stroke-width="0.161" d="M55.889 15.723c-0.396 0-0.791 0.02-1.189 0"/>
	<path fill="none" stroke="#1D1D1B" stroke-width="0.161" d="M52.323 16.11c-0.136 0.026-0.269 0.051-0.409 0.1"/>
	<path fill="none" stroke="#1D1D1B" stroke-width="0.161" d="M57.076 15.77c0.389 0 0.8 0.1 1.2 0.1"/>
	<path fill="none" stroke="#1D1D1B" stroke-width="0.161" d="M59.449 16.096c-0.404-0.078-0.801-0.145-1.188-0.198"/>
	<path fill="none" stroke="#1D1D1B" stroke-width="0.161" d="M52.323 16.11c0.407-0.082 0.804-0.15 1.19-0.206"/>
	<path fill="none" stroke="#1D1D1B" stroke-width="0.161" d="M54.699 15.771c-0.389 0.029-0.785 0.076-1.186 0.1"/>
	<path fill="none" stroke="#1D1D1B" stroke-width="0.161" d="M57.076 15.77c-0.399-0.029-0.795-0.049-1.188-0.047"/>
	<path fill="none" stroke="#1D1D1B" stroke-width="0.161" d="M52.334 17.4c0.396-0.078 0.791-0.143 1.184-0.194"/>
	<path fill="none" stroke="#1D1D1B" stroke-width="0.161" d="M54.703 17.086c-0.395 0.026-0.789 0.067-1.186 0.1"/>
	<path fill="none" stroke="#1D1D1B" stroke-width="0.161" d="M58.256 17.199c0.395 0 0.8 0.1 1.2 0.2"/>
	<path fill="none" stroke="#1D1D1B" stroke-width="0.161" d="M55.889 17.04c-0.396 0.002-0.791 0.02-1.186 0"/>
	<path fill="none" stroke="#1D1D1B" stroke-width="0.161" d="M57.072 17.082c-0.396-0.025-0.79-0.042-1.184-0.042"/>
	<path fill="none" stroke="#1D1D1B" stroke-width="0.161" d="M59.902 17.475c-0.154-0.033-0.307-0.058-0.461-0.086"/>
	<path fill="none" stroke="#1D1D1B" stroke-width="0.161" d="M57.072 17.082c0.393 0 0.8 0.1 1.2 0.1"/>
	<path fill="none" stroke="#1D1D1B" stroke-width="0.161" d="M51.914 17.48c0.141-0.03 0.28-0.053 0.42-0.08"/>
	<path fill="none" stroke="#1D1D1B" stroke-width="0.161" d="M55.889 18.452c-0.398 0-0.793 0.015-1.188 0"/>
	<path fill="none" stroke="#1D1D1B" stroke-width="0.161" d="M57.072 18.486c-0.393-0.021-0.789-0.034-1.184-0.034"/>
	<path fill="none" stroke="#1D1D1B" stroke-width="0.161" d="M59.941 18.855c-0.162-0.035-0.331-0.061-0.499-0.09"/>
	<path fill="none" stroke="#1D1D1B" stroke-width="0.161" d="M58.258 18.589c0.403 0 0.8 0.1 1.2 0.2"/>
	<path fill="none" stroke="#1D1D1B" stroke-width="0.161" d="M57.072 18.486c0.399 0 0.8 0.1 1.2 0.1"/>
	<path fill="none" stroke="#1D1D1B" stroke-width="0.161" d="M52.332 18.776c0.385-0.071 0.78-0.133 1.186-0.182"/>
	<path fill="none" stroke="#1D1D1B" stroke-width="0.161" d="M53.518 18.595c0.389-0.045 0.785-0.082 1.184-0.105"/>
	<path fill="none" stroke="#1D1D1B" stroke-width="0.161" d="M52.332 18.776c-0.153 0.03-0.309 0.054-0.461 0.1"/>
	<path fill="none" stroke="#1D1D1B" stroke-width="0.161" d="M52.318 20.236c0.375-0.066 0.775-0.119 1.188-0.162"/>
	<path fill="none" stroke="#1D1D1B" stroke-width="0.161" d="M60.002 20.328c-0.174-0.036-0.356-0.07-0.546-0.103"/>
	<path fill="none" stroke="#1D1D1B" stroke-width="0.161" d="M55.889 19.953c-0.4 0.002-0.799 0.011-1.191 0"/>
	<path fill="none" stroke="#1D1D1B" stroke-width="0.161" d="M57.076 19.98c-0.393-0.018-0.789-0.027-1.188-0.027"/>
	<path fill="none" stroke="#1D1D1B" stroke-width="0.161" d="M58.266 20.068c0.416 0 0.8 0.1 1.2 0.2"/>
	<path fill="none" stroke="#1D1D1B" stroke-width="0.161" d="M57.076 19.98c0.406 0 0.8 0 1.2 0.1"/>
	<path fill="none" stroke="#1D1D1B" stroke-width="0.161" d="M53.507 20.074c0.388-0.041 0.786-0.07 1.19-0.09"/>
	<path fill="none" stroke="#1D1D1B" stroke-width="0.161" d="M51.812 20.334c0.162-0.035 0.332-0.068 0.506-0.098"/>
	<path fill="none" stroke="#1D1D1B" stroke-width="0.161" d="M60.062 21.894c-0.18-0.038-0.375-0.071-0.58-0.104"/>
	<path fill="none" stroke="#1D1D1B" stroke-width="0.161" d="M52.288 21.799c-0.187 0.03-0.368 0.063-0.536 0.1"/>
	<path fill="none" stroke="#1D1D1B" stroke-width="0.161" d="M52.288 21.799c0.37-0.061 0.774-0.109 1.202-0.148"/>
	<path fill="none" stroke="#1D1D1B" stroke-width="0.161" d="M53.49 21.65c0.385-0.033 0.785-0.061 1.199-0.078"/>
	<path fill="none" stroke="#1D1D1B" stroke-width="0.161" d="M58.285 21.645c0.428 0 0.8 0.1 1.2 0.1"/>
	<path fill="none" stroke="#1D1D1B" stroke-width="0.161" d="M55.889 21.546c-0.404 0.001-0.808 0.011-1.199 0"/>
	<path fill="none" stroke="#1D1D1B" stroke-width="0.161" d="M57.086 21.57c-0.394-0.016-0.796-0.024-1.197-0.024"/>
	<path fill="none" stroke="#1D1D1B" stroke-width="0.161" d="M57.086 21.57c0.412 0 0.8 0 1.2 0.1"/>
	<path fill="none" stroke="#1D1D1B" stroke-width="0.161" d="M52.246 23.449c0.363-0.053 0.771-0.097 1.217-0.131"/>
	<path fill="none" stroke="#1D1D1B" stroke-width="0.161" d="M53.463 23.318c0.383-0.028 0.791-0.051 1.211-0.066"/>
	<path fill="none" stroke="#1D1D1B" stroke-width="0.161" d="M51.65 23.555c0.178-0.039 0.381-0.074 0.596-0.105"/>
	<path fill="none" stroke="#1D1D1B" stroke-width="0.161" d="M60.163 23.549c-0.188-0.04-0.403-0.075-0.637-0.106"/>
	<path fill="none" stroke="#1D1D1B" stroke-width="0.161" d="M57.1 23.25c0.42 0 0.8 0 1.2 0.1"/>
	<path fill="none" stroke="#1D1D1B" stroke-width="0.161" d="M55.889 23.232c-0.409 0-0.818 0.006-1.215 0"/>
	<path fill="none" stroke="#1D1D1B" stroke-width="0.161" d="M57.1 23.25c-0.396-0.013-0.806-0.018-1.211-0.018"/>
	<path fill="none" stroke="#1D1D1B" stroke-width="0.161" d="M58.313 23.314c0.442 0 0.8 0.1 1.2 0.1"/>
	<path fill="none" stroke="#1D1D1B" stroke-width="0.161" d="M58.355 25.077c0.455 0 0.9 0.1 1.2 0.1"/>
	<path fill="none" stroke="#1D1D1B" stroke-width="0.161" d="M60.265 25.297c-0.19-0.041-0.419-0.078-0.675-0.109"/>
	<path fill="none" stroke="#1D1D1B" stroke-width="0.161" d="M57.121 25.023c-0.404-0.011-0.818-0.016-1.232-0.016"/>
	<path fill="none" stroke="#1D1D1B" stroke-width="0.161" d="M55.889 25.008c-0.417 0.001-0.832 0.006-1.234 0"/>
	<path fill="none" stroke="#1D1D1B" stroke-width="0.161" d="M52.186 25.193c0.359-0.047 0.777-0.085 1.235-0.114"/>
	<path fill="none" stroke="#1D1D1B" stroke-width="0.161" d="M57.121 25.023c0.428 0 0.8 0 1.2 0.1"/>
	<path fill="none" stroke="#1D1D1B" stroke-width="0.161" d="M51.531 25.301c0.186-0.041 0.404-0.076 0.654-0.107"/>
	<path fill="none" stroke="#1D1D1B" stroke-width="0.161" d="M53.421 25.079c0.386-0.024 0.805-0.042 1.233-0.054"/>
	<path fill="none" stroke="#1D1D1B" stroke-width="0.161" d="M58.411 26.932c0.47 0 0.9 0.1 1.3 0.1"/>
	<path fill="none" stroke="#1D1D1B" stroke-width="0.161" d="M55.889 26.875c-0.427 0-0.85 0.005-1.262 0"/>
	<path fill="none" stroke="#1D1D1B" stroke-width="0.161" d="M53.363 26.936c0.396-0.021 0.82-0.037 1.264-0.046"/>
	<path fill="none" stroke="#1D1D1B" stroke-width="0.161" d="M60.445 27.137c-0.199-0.044-0.461-0.082-0.771-0.113"/>
	<path fill="none" stroke="#1D1D1B" stroke-width="0.161" d="M57.149 26.888c0.44 0 0.9 0 1.3 0"/>
	<path fill="none" stroke="#1D1D1B" stroke-width="0.161" d="M57.149 26.888c-0.413-0.009-0.837-0.013-1.261-0.013"/>
	<path fill="none" stroke="#1D1D1B" stroke-width="0.161" d="M52.101 27.029c-0.292 0.031-0.542 0.067-0.731 0.1"/>
	<path fill="none" stroke="#1D1D1B" stroke-width="0.161" d="M52.101 27.029c0.36-0.039 0.79-0.07 1.263-0.094"/>
	<path fill="none" stroke="#1D1D1B" stroke-width="0.161" d="M60.607 29.156c-0.191-0.039-0.473-0.076-0.816-0.105"/>
	<path fill="none" stroke="#1D1D1B" stroke-width="0.161" d="M57.188 28.937c0.456 0 0.9 0 1.3 0"/>
	<path fill="none" stroke="#1D1D1B" stroke-width="0.161" d="M57.188 28.937c-0.424-0.008-0.862-0.013-1.299-0.013"/>
	<path fill="none" stroke="#1D1D1B" stroke-width="0.161" d="M58.489 28.973c0.491 0 0.9 0 1.3 0.1"/>
	<path fill="none" stroke="#1D1D1B" stroke-width="0.161" d="M51.209 29.159c0.182-0.039 0.446-0.073 0.773-0.104"/>
	<path fill="none" stroke="#1D1D1B" stroke-width="0.161" d="M53.287 28.975c0.406-0.018 0.845-0.03 1.299-0.037"/>
	<path fill="none" stroke="#1D1D1B" stroke-width="0.161" d="M51.982 29.055c0.367-0.033 0.812-0.059 1.305-0.08"/>
	<path fill="none" stroke="#1D1D1B" stroke-width="0.161" d="M55.889 28.924c-0.439 0-0.877 0.006-1.303 0"/>
	<path fill="none" stroke="#1D1D1B" stroke-width="0.161" d="M58.591 31.105c0.515 0 1 0 1.4 0.1"/>
	<path fill="none" stroke="#1D1D1B" stroke-width="0.161" d="M57.238 31.076c-0.441-0.008-0.896-0.01-1.35-0.01"/>
	<path fill="none" stroke="#1D1D1B" stroke-width="0.161" d="M51.829 31.174c-0.375 0.027-0.668 0.061-0.841 0.1"/>
	<path fill="none" stroke="#1D1D1B" stroke-width="0.161" d="M53.184 31.107c0.423-0.016 0.879-0.024 1.352-0.03"/>
	<path fill="none" stroke="#1D1D1B" stroke-width="0.161" d="M51.829 31.174c0.378-0.027 0.839-0.051 1.354-0.066"/>
	<path fill="none" stroke="#1D1D1B" stroke-width="0.161" d="M60.827 31.27c-0.18-0.04-0.487-0.072-0.882-0.1"/>
	<path fill="none" stroke="#1D1D1B" stroke-width="0.161" d="M55.889 31.066c-0.457 0-0.912 0.004-1.354 0"/>
	<path fill="none" stroke="#1D1D1B" stroke-width="0.161" d="M57.238 31.076c0.475 0 0.9 0 1.4 0"/>
	<path fill="none" stroke="#1D1D1B" stroke-width="0.161" d="M58.722 33.33c0.538 0 1 0 1.4 0.1"/>
	<path fill="none" stroke="#1D1D1B" stroke-width="0.161" d="M50.745 33.476c0.159-0.035 0.472-0.064 0.89-0.089"/>
	<path fill="none" stroke="#1D1D1B" stroke-width="0.161" d="M61.089 33.472c-0.166-0.034-0.501-0.063-0.95-0.09"/>
	<path fill="none" stroke="#1D1D1B" stroke-width="0.161" d="M57.303 33.307c-0.461-0.005-0.938-0.008-1.414-0.008"/>
	<path fill="none" stroke="#1D1D1B" stroke-width="0.161" d="M53.055 33.332c0.44-0.01 0.918-0.019 1.416-0.024"/>
	<path fill="none" stroke="#1D1D1B" stroke-width="0.161" d="M55.889 33.299c-0.479 0-0.955 0.004-1.418 0"/>
	<path fill="none" stroke="#1D1D1B" stroke-width="0.161" d="M51.635 33.387c0.393-0.021 0.877-0.041 1.42-0.055"/>
	<path fill="none" stroke="#1D1D1B" stroke-width="0.161" d="M57.303 33.307c0.497 0 1 0 1.4 0"/>
	<path fill="none" stroke="#1D1D1B" stroke-width="0.161" d="M61.371 35.769c-0.144-0.031-0.492-0.057-0.984-0.078"/>
	<path fill="none" stroke="#1D1D1B" stroke-width="0.161" d="M55.889 35.623c-0.508 0-1.012 0.002-1.499 0"/>
	<path fill="none" stroke="#1D1D1B" stroke-width="0.161" d="M57.385 35.629c0.527 0 1 0 1.5 0"/>
	<path fill="none" stroke="#1D1D1B" stroke-width="0.161" d="M57.385 35.629c-0.487-0.004-0.991-0.006-1.496-0.006"/>
	<path fill="none" stroke="#1D1D1B" stroke-width="0.161" d="M58.885 35.647c0.576 0 1.1 0 1.5 0"/>
	<path fill="none" stroke="#1D1D1B" stroke-width="0.161" d="M52.889 35.65c0.468-0.01 0.974-0.016 1.501-0.021"/>
	<path fill="none" stroke="#1D1D1B" stroke-width="0.161" d="M51.389 35.693c0.409-0.019 0.924-0.033 1.5-0.043"/>
	<path fill="none" stroke="#1D1D1B" stroke-width="0.161" d="M51.389 35.693c-0.471 0.021-0.805 0.046-0.945 0.1"/>
	<path fill="none" stroke="#1D1D1B" stroke-width="0.161" d="M57.49 38.044c0.564 0 1.1 0 1.6 0"/>
	<path fill="none" stroke="#1D1D1B" stroke-width="0.161" d="M61.713 38.154c-0.115-0.025-0.482-0.046-1.012-0.062"/>
	<path fill="none" stroke="#1D1D1B" stroke-width="0.161" d="M52.68 38.059c0.499-0.008 1.039-0.012 1.605-0.015"/>
	<path fill="none" stroke="#1D1D1B" stroke-width="0.161" d="M59.094 38.059c0.619 0 1.2 0 1.6 0"/>
	<path fill="none" stroke="#1D1D1B" stroke-width="0.161" d="M51.074 38.094c0.433-0.016 0.986-0.026 1.605-0.035"/>
	<path fill="none" stroke="#1D1D1B" stroke-width="0.161" d="M55.889 38.038c-0.542 0-1.082 0.002-1.604 0"/>
	<path fill="none" stroke="#1D1D1B" stroke-width="0.161" d="M57.49 38.044c-0.522-0.004-1.062-0.006-1.602-0.006"/>
	<path fill="none" stroke="#1D1D1B" stroke-width="0.161" d="M50.102 38.156c0.113-0.025 0.463-0.046 0.973-0.062"/>
	<path fill="none" stroke="#1D1D1B" stroke-width="0.161" d="M55.889 40.545c-0.588 0-1.173 0.001-1.736 0"/>
	<path fill="none" stroke="#1D1D1B" stroke-width="0.161" d="M52.416 40.562c0.535-0.007 1.122-0.01 1.736-0.013"/>
	<path fill="none" stroke="#1D1D1B" stroke-width="0.161" d="M59.359 40.56c0.682 0 1.1 0 1.6 0"/>
	<path fill="none" stroke="#1D1D1B" stroke-width="0.161" d="M50.857 40.588c0.457-0.011 0.873-0.021 1.559-0.026"/>
	<path fill="none" stroke="#1D1D1B" stroke-width="0.161" d="M57.623 40.549c0.615 0 1.2 0 1.7 0"/>
	<path fill="none" stroke="#1D1D1B" stroke-width="0.161" d="M62.053 40.633c-0.084-0.019-0.61-0.034-1.135-0.047"/>
	<path fill="none" stroke="#1D1D1B" stroke-width="0.161" d="M57.623 40.549c-0.564-0.003-1.149-0.004-1.734-0.004"/>
	<path fill="none" stroke="#1D1D1B" stroke-width="0.161" d="M49.74 40.634c0.084-0.019 0.605-0.033 1.117-0.046"/>
	<path fill="none" stroke="#1D1D1B" stroke-width="0.161" d="M50.73 43.174c0.483-0.008 0.59-0.015 1.355-0.019"/>
	<path fill="none" stroke="#1D1D1B" stroke-width="0.161" d="M52.086 43.155c0.582-0.005 1.228-0.007 1.9-0.009"/>
	<path fill="none" stroke="#1D1D1B" stroke-width="0.161" d="M59.689 43.153c0.76 0 0.9 0 1.4 0"/>
	<path fill="none" stroke="#1D1D1B" stroke-width="0.161" d="M62.48 43.201c-0.054-0.012-0.926-0.021-1.436-0.028"/>
	<path fill="none" stroke="#1D1D1B" stroke-width="0.161" d="M49.346 43.202c0.051-0.012 0.906-0.021 1.385-0.028"/>
	<path fill="none" stroke="#1D1D1B" stroke-width="0.161" d="M57.789 43.146c0.673 0 1.3 0 1.9 0"/>
	<path fill="none" stroke="#1D1D1B" stroke-width="0.161" d="M55.889 43.145c-0.644 0-1.285 0-1.902 0"/>
	<path fill="none" stroke="#1D1D1B" stroke-width="0.161" d="M57.789 43.146c-0.617-0.002-1.26-0.002-1.9-0.002"/>
	<path fill="none" stroke="#1D1D1B" stroke-width="0.161" d="M52.09 45.838c0.584-0.002 1.592-0.002 2.264-0.004"/>
	<path fill="none" stroke="#1D1D1B" stroke-width="0.161" d="M50.645 45.847c0.495-0.004 0.691-0.006 1.445-0.009"/>
	<path fill="none" stroke="#1D1D1B" stroke-width="0.161" d="M54.354 45.834c0.617 0 0.893-0.002 1.535-0.002"/>
	<path fill="none" stroke="#1D1D1B" stroke-width="0.161" d="M59.688 45.838c0.748 0 0.9 0 1.4 0"/>
	<path fill="none" stroke="#1D1D1B" stroke-width="0.161" d="M59.688 45.838c-0.586-0.002-1.594-0.002-2.265-0.004"/>
	<path fill="none" stroke="#1D1D1B" stroke-width="0.161" d="M62.604 45.861c-0.028-0.006-0.862-0.011-1.472-0.015"/>
	<path fill="none" stroke="#1D1D1B" stroke-width="0.161" d="M50.645 45.847c-0.594 0.004-1.419 0.009-1.445 0"/>
	<path fill="none" stroke="#1D1D1B" stroke-width="0.161" d="M57.423 45.834c-0.618 0-0.895-0.002-1.534-0.002"/>
	<path fill="none" stroke="#1D1D1B" stroke-width="0.161" d="M51.635 33.387c0.072-0.74 0.138-1.479 0.194-2.213"/>
	<path fill="none" stroke="#1D1D1B" stroke-width="0.161" d="M51.074 38.094c0.113-0.795 0.219-1.596 0.314-2.4"/>
	<path fill="none" stroke="#1D1D1B" stroke-width="0.161" d="M52.305 14.856c0-0.027-0.002-0.043-0.002-0.043"/>
	<polyline fill="none" stroke="#1D1D1B" stroke-width="0.161" points="50.7,43.2 50.7,43.1 50.9,40.6"/>
	<path fill="none" stroke="#1D1D1B" stroke-width="0.161" d="M51.982 29.055c0.045-0.686 0.084-1.361 0.118-2.025"/>
	<path fill="none" stroke="#1D1D1B" stroke-width="0.161" d="M52.186 25.193c0.023-0.598 0.044-1.18 0.061-1.744"/>
	<path fill="none" stroke="#1D1D1B" stroke-width="0.161" d="M52.318 20.236c-0.006 0.496-0.016 1.019-0.03 1.6"/>
	<path fill="none" stroke="#1D1D1B" stroke-width="0.161" d="M52.334 17.4c0 0.4 0 0.86-0.002 1.4"/>
	<path fill="none" stroke="#1D1D1B" stroke-width="0.161" d="M52.305 14.856c0.004 0.1 0 0.6 0 1.3"/>
	<path fill="none" stroke="#1D1D1B" stroke-width="0.161" d="M50.645 45.847c0.003 1.4 0 2.6 0 2.6"/>
	<path fill="none" stroke="#1D1D1B" stroke-width="0.161" d="M53.518 18.595c-0.004 0.462-0.004 0.956-0.011 1.5"/>
	<path fill="none" stroke="#1D1D1B" stroke-width="0.161" d="M52.086 43.155c0 0.8 0 1.8 0 2.7"/>
	<path fill="none" stroke="#1D1D1B" stroke-width="0.161" d="M53.287 28.975c-0.033 0.703-0.064 1.414-0.104 2.1"/>
	<path fill="none" stroke="#1D1D1B" stroke-width="0.161" d="M53.514 15.904c0 0.4 0 0.8 0 1.3"/>
	<path fill="none" stroke="#1D1D1B" stroke-width="0.161" d="M53.421 25.079c-0.019 0.604-0.036 1.225-0.058 1.9"/>
	<line fill="none" stroke="#1D1D1B" stroke-width="0.161" x1="53.5" y1="14.6" x2="53.5" y2="14.6"/>
	<path fill="none" stroke="#1D1D1B" stroke-width="0.161" d="M53.49 21.65c-0.008 0.536-0.018 1.092-0.027 1.7"/>
	<path fill="none" stroke="#1D1D1B" stroke-width="0.161" d="M52.68 38.059c-0.078 0.846-0.168 1.683-0.264 2.5"/>
	<path fill="none" stroke="#1D1D1B" stroke-width="0.161" d="M53.055 33.332c-0.051 0.772-0.104 1.547-0.166 2.3"/>
	<path fill="none" stroke="#1D1D1B" stroke-width="0.161" d="M52.086 43.155c0-0.029 0-0.061 0-0.089"/>
	<path fill="none" stroke="#1D1D1B" stroke-width="0.161" d="M54.654 25.025c0.008-0.608 0.014-1.199 0.02-1.773"/>
	<path fill="none" stroke="#1D1D1B" stroke-width="0.161" d="M54.471 33.308c0.024-0.747 0.045-1.493 0.064-2.23"/>
	<path fill="none" stroke="#1D1D1B" stroke-width="0.161" d="M54.285 38.044c0.038-0.8 0.073-1.604 0.104-2.414"/>
	<path fill="none" stroke="#1D1D1B" stroke-width="0.161" d="M54.354 45.834c0-0.921-0.367-1.916-0.367-2.688"/>
	<path fill="none" stroke="#1D1D1B" stroke-width="0.161" d="M54.354 48.461c0 0 0-1.227-0.001-2.627"/>
	<path fill="none" stroke="#1D1D1B" stroke-width="0.161" d="M53.986 43.146c0-0.026 0-0.054 0-0.08 c0.059-0.816 0.115-1.658 0.166-2.518"/>
	<path fill="none" stroke="#1D1D1B" stroke-width="0.161" d="M54.697 19.984c0.002-0.529 0.004-1.029 0.004-1.495"/>
	<path fill="none" stroke="#1D1D1B" stroke-width="0.161" d="M54.699 15.771c-0.002-0.787-0.007-1.232-0.007-1.232"/>
	<path fill="none" stroke="#1D1D1B" stroke-width="0.161" d="M54.689 21.572c0.003-0.555 0.006-1.085 0.008-1.588"/>
	<path fill="none" stroke="#1D1D1B" stroke-width="0.161" d="M54.586 28.938c0.016-0.693 0.029-1.377 0.041-2.048"/>
	<path fill="none" stroke="#1D1D1B" stroke-width="0.161" d="M55.889 43.145c0 0.8 0 1.8 0 2.7"/>
	<path fill="none" stroke="#1D1D1B" stroke-width="0.161" d="M55.889 15.723c0 0.4 0 0.8 0 1.3"/>
	<path fill="none" stroke="#1D1D1B" stroke-width="0.161" d="M55.889 43.145c0-0.026 0-0.052 0-0.078c0-0.816 0-1.66 0-2.521"/>
	<path fill="none" stroke="#1D1D1B" stroke-width="0.161" d="M55.889 18.452c0 0.5 0 1 0 1.5"/>
	<path fill="none" stroke="#1D1D1B" stroke-width="0.161" d="M55.889 25.008c0 0.6 0 1.2 0 1.9"/>
	<path fill="none" stroke="#1D1D1B" stroke-width="0.161" d="M55.889 28.924c0 0.7 0 1.4 0 2.1"/>
	<path fill="none" stroke="#1D1D1B" stroke-width="0.161" d="M55.889 33.299c0 0.8 0 1.6 0 2.3"/>
	<path fill="none" stroke="#1D1D1B" stroke-width="0.161" d="M55.889 38.038c0 0.8 0 1.7 0 2.5"/>
	<path fill="none" stroke="#1D1D1B" stroke-width="0.161" d="M55.889 21.546c0 0.5 0 1.1 0 1.7"/>
	<path fill="none" stroke="#1D1D1B" stroke-width="0.161" d="M57.076 15.77c0.001-0.789 0.008-1.23 0.008-1.23"/>
	<path fill="none" stroke="#1D1D1B" stroke-width="0.161" d="M57.072 17.082c0 0.4 0 0.9 0 1.4"/>
	<path fill="none" stroke="#1D1D1B" stroke-width="0.161" d="M57.076 19.98c0.003 0.5 0 1 0 1.6"/>
	<path fill="none" stroke="#1D1D1B" stroke-width="0.161" d="M57.385 35.629c0.031 0.8 0.1 1.6 0.1 2.4"/>
	<path fill="none" stroke="#1D1D1B" stroke-width="0.161" d="M57.789 43.146c0-0.026 0-0.054 0-0.08 c-0.061-0.816-0.115-1.658-0.166-2.518"/>
	<path fill="none" stroke="#1D1D1B" stroke-width="0.161" d="M57.423 45.834c-0.001 1.4-0.001 2.627-0.001 2.6"/>
	<path fill="none" stroke="#1D1D1B" stroke-width="0.161" d="M57.789 43.146c0 0.771-0.366 1.767-0.366 2.7"/>
	<path fill="none" stroke="#1D1D1B" stroke-width="0.161" d="M57.149 26.888c0.011 0.7 0 1.4 0 2"/>
	<path fill="none" stroke="#1D1D1B" stroke-width="0.161" d="M57.238 31.076c0.021 0.7 0 1.5 0.1 2.2"/>
	<path fill="none" stroke="#1D1D1B" stroke-width="0.161" d="M57.121 25.023c0.008 0.6 0 1.2 0 1.9"/>
	<path fill="none" stroke="#1D1D1B" stroke-width="0.161" d="M57.1 23.25c0.008 0.6 0 1.2 0 1.8"/>
	<path fill="none" stroke="#1D1D1B" stroke-width="0.161" d="M59.689 43.153c0 0.8 0 1.765-0.002 2.7"/>
	<path fill="none" stroke="#1D1D1B" stroke-width="0.161" d="M58.489 28.973c0.032 0.7 0.1 1.4 0.1 2.1"/>
	<path fill="none" stroke="#1D1D1B" stroke-width="0.161" d="M58.722 33.33c0.048 0.8 0.1 1.5 0.2 2.3"/>
	<path fill="none" stroke="#1D1D1B" stroke-width="0.161" d="M59.094 38.059c0.082 0.8 0.2 1.7 0.3 2.5"/>
	<path fill="none" stroke="#1D1D1B" stroke-width="0.161" d="M58.262 15.897c-0.003 0.362-0.004 0.802-0.006 1.3"/>
	<path fill="none" stroke="#1D1D1B" stroke-width="0.161" d="M58.258 18.589c0.001 0.5 0 1 0 1.5"/>
	<path fill="none" stroke="#1D1D1B" stroke-width="0.161" d="M58.285 21.645c0.008 0.5 0 1.1 0 1.7"/>
	<path fill="none" stroke="#1D1D1B" stroke-width="0.161" d="M59.689 43.153c0-0.027 0-0.059 0-0.087"/>
	<path fill="none" stroke="#1D1D1B" stroke-width="0.161" d="M58.355 25.077c0.018 0.6 0 1.2 0.1 1.9"/>
	<polyline fill="none" stroke="#1D1D1B" stroke-width="0.161" points="60.9,40.6 61,43.1 61,43.2"/>
	<path fill="none" stroke="#1D1D1B" stroke-width="0.161" d="M59.473 14.837c0-0.013 0-0.023 0-0.023"/>
	<path fill="none" stroke="#1D1D1B" stroke-width="0.161" d="M59.473 14.837c-0.004 0.101-0.016 0.542-0.023 1.3"/>
	<path fill="none" stroke="#1D1D1B" stroke-width="0.161" d="M59.526 23.442c0.02 0.6 0 1.1 0.1 1.7"/>
	<path fill="none" stroke="#1D1D1B" stroke-width="0.161" d="M61.123 48.461c0 0 0.004-1.221 0.009-2.614"/>
	<path fill="none" stroke="#1D1D1B" stroke-width="0.161" d="M59.456 20.226c0.007 0.5 0 1 0 1.6"/>
	<path fill="none" stroke="#1D1D1B" stroke-width="0.161" d="M59.442 18.766c-0.003-0.501-0.003-0.961-0.001-1.377"/>
	<path fill="none" stroke="#1D1D1B" stroke-width="0.161" d="M59.675 27.023c0.034 0.7 0.1 1.3 0.1 2"/>
	<path fill="none" stroke="#1D1D1B" stroke-width="0.161" d="M60.387 35.69c0.096 0.8 0.2 1.6 0.3 2.4"/>
	<path fill="none" stroke="#1D1D1B" stroke-width="0.161" d="M59.945 31.17c0.057 0.7 0.1 1.5 0.2 2.2"/>
	<path fill="none" stroke="#1D1D1B" stroke-width="0.161" d="M54.682 18.406c0.004-0.553 0.008-0.865 0.01-1.369"/>
	<path fill="none" stroke="#1D1D1B" stroke-width="0.1288" d="M51.828 15.499c2.951-0.66 5.211-0.66 8.18-0.007"/>
	<path fill="none" stroke="#1D1D1B" stroke-width="0.1288" d="M51.848 16.898c2.779-0.642 5.34-0.642 8.139-0.008"/>
	<path fill="none" stroke="#1D1D1B" stroke-width="0.1288" d="M51.752 18.102c2.69-0.507 5.615-0.507 8.326-0.005"/>
	<path fill="none" stroke="#1D1D1B" stroke-width="0.1288" d="M51.76 19.576c2.397-0.453 5.887-0.453 8.303-0.005"/>
	<path fill="none" stroke="#1D1D1B" stroke-width="0.1288" d="M51.75 21.088c2.261-0.453 6.012-0.453 8.291-0.004"/>
	<path fill="none" stroke="#1D1D1B" stroke-width="0.1288" d="M51.643 22.687c2.068-0.37 6.441-0.37 8.525-0.004"/>
	<path fill="none" stroke="#1D1D1B" stroke-width="0.1288" d="M51.566 24.437c1.874-0.354 6.838-0.354 8.727-0.003"/>
	<path fill="none" stroke="#1D1D1B" stroke-width="0.1288" d="M51.412 26.145c1.835-0.313 7.243-0.313 9.088-0.004"/>
	<path fill="none" stroke="#1D1D1B" stroke-width="0.1288" d="M51.25 28.152c1.648-0.293 7.662-0.293 9.32-0.002"/>
	<path fill="none" stroke="#1D1D1B" stroke-width="0.1288" d="M51.117 30.276c1.476-0.302 8.123-0.302 9.608-0.003"/>
	<path fill="none" stroke="#1D1D1B" stroke-width="0.1288" d="M50.842 32.418c1.33-0.246 8.754-0.246 10.094-0.002"/>
	<path fill="none" stroke="#1D1D1B" stroke-width="0.1288" d="M50.564 34.654c1.19-0.199 9.443-0.199 10.641-0.002"/>
	<path fill="none" stroke="#1D1D1B" stroke-width="0.1288" d="M50.261 37.05c1.042-0.202 10.19-0.202 11.239-0.003"/>
	<path fill="none" stroke="#1D1D1B" stroke-width="0.1288" d="M49.891 39.377c0.794-0.164 11.172-0.164 11.971-0.004"/>
	<path fill="none" stroke="#1D1D1B" stroke-width="0.1288" d="M49.443 41.672c0.645-0.145 12.207-0.145 12.9 0"/>
	<path fill="none" stroke="#1D1D1B" stroke-width="0.1288" d="M49.35 42.419c0.552-0.122 12.486-0.122 13.043-0.001"/>
	<path fill="none" stroke="#1D1D1B" stroke-width="0.1288" d="M58.775 44.495c2.062 0 3.7 0 3.8 0.1"/>
	<path fill="none" stroke="#1D1D1B" stroke-width="0.1288" d="M49.158 44.552c0.133-0.03 1.876-0.049 4.064-0.057"/>
	<path fill="none" stroke="#1D1D1B" stroke-width="0.1288" d="M52.578 46.756c0.041-0.021 6.684-0.021 6.7 0"/>
	<path fill="none" stroke="#1D1D1B" stroke-width="0.1288" d="M52.578 47.319c0.041-0.021 6.684-0.021 6.7 0"/>
	<path fill="none" stroke="#1D1D1B" stroke-width="0.1288" d="M52.578 46.756c0.041-0.021 6.684-0.021 6.7 0"/>
	<line fill="none" stroke="#1D1D1B" stroke-width="0.1288" x1="49.2" y1="48.5" x2="62.5" y2="48.5"/>
	<path fill="#FFD700" d="M59.055 24.43c0 0-0.342-0.814-1.131-0.814c-0.792 0-1.082 0.714-1.082 0.714v2.517l2.306 0.1"/>
	<path fill="none" stroke="#1D1D1B" stroke-width="0.1534" d="M59.055 24.43c0 0-0.342-0.814-1.131-0.814 c-0.792 0-1.082 0.714-1.082 0.714v2.517l2.306 0.101L59.055 24.43z"/>
	<path fill="#FFD700" d="M57.896 39.902c0 0-0.611-1.031-2.03-1.031s-1.94 1.031-1.94 1.031v5.992h3.971"/>
	<path fill="none" stroke="#1D1D1B" stroke-width="0.1529" d="M57.896 39.902c0 0-0.611-1.031-2.03-1.031s-1.94 1.031-1.94 1 v5.992h3.971V39.902z"/>
	<path fill="#1D1D1B" d="M57.295 40.582c0 0-0.428-0.905-1.416-0.905c-0.986 0-1.351 0.905-1.351 0.905v5.271h2.767"/>
	<path fill="#FFD700" d="M55.046 18.018c0 0-0.286-0.543-0.952-0.543s-0.912 0.725-0.912 0.725v1.912l1.864-0.184"/>
	<path fill="none" stroke="#1D1D1B" stroke-width="0.1541" d="M55.046 18.018c0 0-0.286-0.543-0.952-0.543s-0.912 0.725-0.912 0.7 v1.912l1.864-0.184V18.018z"/>
	<path fill="#1D1D1B" d="M58.832 24.653c0 0-0.308-0.743-1.018-0.743c-0.711 0-0.973 0.652-0.973 0.652v2.294l2.082 0.1"/>
	<path fill="#1D1D1B" d="M55.081 18.194c0 0-0.255-0.498-0.851-0.498c-0.591 0-0.809 0.665-0.809 0.665v1.751l1.659-0.168"/>
	<g>
		<defs>
			<path id="SVGID_28_" d="M31.487 0.54c0 0 0 5.9 0 16.849c0 27.7 21.3 38.4 24.4 38.4 c3.162 0 24.414-10.732 24.414-38.424c0-10.946 0-16.849 0-16.849 M78.602 18.145c0 25.752-19.762 35.734-22.703 35.7 c-2.939 0-22.702-9.982-22.702-35.734c0-10.181 0-15.669 0-15.669h45.405C78.602 2.5 78.6 8 78.6 18.145z"/>
		</defs>
		<clipPath id="SVGID_29_">
			<use xlink:href="#SVGID_28_" overflow="visible"/>
		</clipPath>
		
			<linearGradient id="SVGID_30_" gradientUnits="userSpaceOnUse" x1="-265.5" y1="499.5" x2="-264.4" y2="499.5" gradientTransform="matrix(46.0829 0 0 -46.0829 12266.875 23048.125)">
			<stop offset="0" style="stop-color:#DEDCEA"/>
			<stop offset="0.3956" style="stop-color:#DEDCEA"/>
			<stop offset="0.4666" style="stop-color:#B5B0CA"/>
			<stop offset="0.5347" style="stop-color:#948CB1"/>
			<stop offset="0.5903" style="stop-color:#8077A2"/>
			<stop offset="0.6264" style="stop-color:#796F9C"/>
			<stop offset="1" style="stop-color:#796F9C"/>
		</linearGradient>
		<rect x="31.5" y="0.5" clip-path="url(#SVGID_29_)" fill="url(#SVGID_30_)" width="48.8" height="55.3"/>
	</g>
	<path fill="none" stroke="#1D1D1B" stroke-width="0.644" d="M31.487 0.54c0 0 0 5.9 0 16.8 c0 27.7 21.3 38.4 24.4 38.424c3.162 0 24.414-10.732 24.414-38.424c0-10.946 0-16.849 0-16.849H31.487z M78.602 18.1 c0 25.752-19.762 35.734-22.703 35.734c-2.939 0-22.702-9.982-22.702-35.734c0-10.181 0-15.669 0-15.669h45.405 C78.602 2.5 78.6 8 78.6 18.145z"/>
	<g>
		<path fill="#211554" d="M27.02 93.519c1.422 0.3 2.5 0.8 3.2 1.452c0.978 0.9 1.5 2.1 1.5 3.4 c0 1.018-0.32 1.991-0.967 2.924c-0.645 0.931-1.527 1.611-2.652 2.04c-1.122 0.428-2.838 0.643-5.146 0.643H13.24v-0.561h0.77 c0.855 0 1.472-0.271 1.844-0.815c0.232-0.352 0.346-1.103 0.346-2.253V87.113c0-1.271-0.145-2.07-0.436-2.404 c-0.395-0.442-0.979-0.664-1.754-0.664h-0.77v-0.561h8.854c1.652 0 3 0.1 4 0.363c1.512 0.4 2.7 1 3.5 1.9 c0.796 0.9 1.2 2 1.2 3.182c0 1.026-0.312 1.946-0.938 2.756C29.161 92.5 28.2 93.1 27 93.5 M19.102 92.7 c0.373 0.1 0.8 0.1 1.3 0.159s1.005 0.1 1.6 0.053c1.47 0 2.576-0.159 3.317-0.477c0.74-0.316 1.307-0.803 1.699-1.458 c0.393-0.654 0.59-1.37 0.59-2.145c0-1.199-0.488-2.223-1.467-3.068c-0.977-0.847-2.402-1.269-4.275-1.269 c-1.008 0-1.915 0.109-2.721 0.331V92.703z M19.102 102.495c1.169 0.3 2.3 0.4 3.5 0.408c1.824 0 3.213-0.41 4.171-1.231 c0.957-0.821 1.437-1.838 1.437-3.045c0-0.796-0.219-1.562-0.652-2.297c-0.432-0.736-1.137-1.314-2.113-1.738 c-0.979-0.423-2.186-0.635-3.628-0.635c-0.624 0-1.159 0.01-1.602 0.03s-0.8 0.056-1.073 0.105V102.495z"/>
		<path fill="#211554" d="M47.527 97.117h-7.935l-1.392 3.23c-0.342 0.797-0.513 1.393-0.513 1.785c0 0.3 0.1 0.6 0.4 0.8 c0.297 0.2 0.9 0.4 1.9 0.459v0.561h-6.451v-0.561c0.855-0.151 1.41-0.347 1.662-0.588 c0.514-0.483 1.082-1.466 1.707-2.947l7.207-16.864h0.53l7.132 17.045c0.573 1.4 1.1 2.3 1.6 2.7 c0.47 0.4 1.1 0.6 2 0.688v0.561h-8.086v-0.561c0.814-0.039 1.365-0.176 1.652-0.408c0.287-0.23 0.432-0.513 0.432-0.846 c0-0.442-0.203-1.143-0.605-2.101 M47.104 95.998l-3.477-8.281l-3.566 8.281H47.104z"/>
		<path fill="#211554" d="M74.348 83.017l0.471 6.966h-0.471c-0.625-2.084-1.514-3.586-2.674-4.503 c-1.16-0.916-2.547-1.375-4.17-1.375c-1.361 0-2.59 0.347-3.689 1.036c-1.098 0.689-1.961 1.789-2.59 3.3 c-0.63 1.512-0.943 3.391-0.943 5.638c0 1.9 0.3 3.5 0.9 4.819s1.487 2.4 2.7 3.127c1.193 0.7 2.6 1.1 4.1 1.1 c1.33 0 2.504-0.286 3.521-0.855c1.016-0.568 2.135-1.697 3.355-3.392l0.467 0.302c-1.029 1.824-2.226 3.16-3.598 4 c-1.369 0.847-2.995 1.271-4.881 1.271c-3.394 0-6.023-1.259-7.889-3.777c-1.387-1.874-2.084-4.081-2.084-6.619 c0-2.045 0.459-3.923 1.377-5.637c0.916-1.712 2.178-3.038 3.785-3.98c1.605-0.942 3.361-1.414 5.266-1.414 c1.481 0 2.9 0.4 4.4 1.088c0.424 0.2 0.7 0.3 0.9 0.333c0.273 0 0.511-0.096 0.712-0.287 c0.261-0.271 0.448-0.65 0.558-1.134"/>
		<path fill="#211554" d="M90.518 97.117h-7.934l-1.392 3.23c-0.341 0.797-0.513 1.393-0.513 1.785c0 0.3 0.1 0.6 0.4 0.8 c0.298 0.2 0.9 0.4 1.9 0.459v0.561h-6.454v-0.561c0.858-0.151 1.413-0.347 1.665-0.588 c0.513-0.483 1.082-1.466 1.708-2.947l7.207-16.864h0.527l7.135 17.045c0.572 1.4 1.1 2.3 1.6 2.7 s1.121 0.6 2 0.688v0.561h-8.085v-0.561c0.816-0.039 1.367-0.176 1.653-0.408c0.287-0.23 0.433-0.513 0.433-0.846 c0-0.442-0.204-1.143-0.605-2.101 M90.094 95.998l-3.477-8.281l-3.565 8.281H90.094z"/>
	</g>
</g>
</svg>
